M48
; DRILL file {KiCad 7.0.7} date 2024 February 22, Thursday 14:50:12
; FORMAT={-:-/ absolute / metric / decimal}
; #@! TF.CreationDate,2024-02-22T14:50:12+01:00
; #@! TF.GenerationSoftware,Kicad,Pcbnew,7.0.7
; #@! TF.FileFunction,Plated,1,2,PTH
FMAT,2
METRIC
; #@! TA.AperFunction,Plated,PTH,ComponentDrill
T1C0.900
; #@! TA.AperFunction,Plated,PTH,ComponentDrill
T2C0.950
; #@! TA.AperFunction,Plated,PTH,ComponentDrill
T3C1.000
; #@! TA.AperFunction,Plated,PTH,ComponentDrill
T4C2.000
%
G90
G05
T1
X54.07Y-76.0
X54.07Y-102.0
X56.61Y-76.0
X56.61Y-102.0
X59.15Y-76.0
X59.15Y-102.0
X61.69Y-76.0
X61.69Y-102.0
X64.23Y-76.0
X64.23Y-102.0
X66.77Y-76.0
X66.77Y-102.0
X69.31Y-76.0
X69.31Y-102.0
X71.85Y-76.0
X71.85Y-102.0
X74.39Y-76.0
X74.39Y-102.0
X76.93Y-76.0
X76.93Y-102.0
X79.47Y-76.0
X79.47Y-102.0
X82.01Y-76.0
X82.01Y-102.0
X84.55Y-76.0
X84.55Y-102.0
X87.09Y-76.0
X87.09Y-102.0
X89.63Y-76.0
X89.63Y-102.0
X92.17Y-76.0
X92.17Y-102.0
X94.71Y-76.0
X94.71Y-102.0
X97.25Y-76.0
X97.25Y-102.0
X99.79Y-76.0
X99.79Y-102.0
T2
X60.0Y-80.95
X62.5Y-80.95
X65.0Y-80.95
X67.5Y-80.95
X70.0Y-80.95
X72.5Y-80.95
X80.0Y-80.95
X82.5Y-80.95
X85.0Y-80.95
X87.5Y-80.95
X90.0Y-80.95
X92.5Y-80.95
T3
X70.19Y-86.0
X72.73Y-86.0
X75.27Y-86.0
X77.81Y-86.0
X91.2Y-92.5
X98.8Y-92.5
T4
X63.0Y-86.5
X63.0Y-108.5
X85.0Y-86.5
X85.0Y-108.5
T0
M30
