G04 #@! TF.GenerationSoftware,KiCad,Pcbnew,7.0.7*
G04 #@! TF.CreationDate,2024-02-22T14:50:09+01:00*
G04 #@! TF.ProjectId,USB_Breakout_Test_Jig,5553425f-4272-4656-916b-6f75745f5465,v1.0*
G04 #@! TF.SameCoordinates,Original*
G04 #@! TF.FileFunction,Copper,L2,Bot*
G04 #@! TF.FilePolarity,Positive*
%FSLAX46Y46*%
G04 Gerber Fmt 4.6, Leading zero omitted, Abs format (unit mm)*
G04 Created by KiCad (PCBNEW 7.0.7) date 2024-02-22 14:50:09*
%MOMM*%
%LPD*%
G01*
G04 APERTURE LIST*
G04 Aperture macros list*
%AMRoundRect*
0 Rectangle with rounded corners*
0 $1 Rounding radius*
0 $2 $3 $4 $5 $6 $7 $8 $9 X,Y pos of 4 corners*
0 Add a 4 corners polygon primitive as box body*
4,1,4,$2,$3,$4,$5,$6,$7,$8,$9,$2,$3,0*
0 Add four circle primitives for the rounded corners*
1,1,$1+$1,$2,$3*
1,1,$1+$1,$4,$5*
1,1,$1+$1,$6,$7*
1,1,$1+$1,$8,$9*
0 Add four rect primitives between the rounded corners*
20,1,$1+$1,$2,$3,$4,$5,0*
20,1,$1+$1,$4,$5,$6,$7,0*
20,1,$1+$1,$6,$7,$8,$9,0*
20,1,$1+$1,$8,$9,$2,$3,0*%
G04 Aperture macros list end*
G04 #@! TA.AperFunction,ComponentPad*
%ADD10RoundRect,0.250000X0.600000X0.725000X-0.600000X0.725000X-0.600000X-0.725000X0.600000X-0.725000X0*%
G04 #@! TD*
G04 #@! TA.AperFunction,ComponentPad*
%ADD11O,1.700000X1.950000*%
G04 #@! TD*
G04 #@! TA.AperFunction,ComponentPad*
%ADD12R,2.000000X2.000000*%
G04 #@! TD*
G04 #@! TA.AperFunction,ComponentPad*
%ADD13C,2.000000*%
G04 #@! TD*
G04 #@! TA.AperFunction,ComponentPad*
%ADD14R,1.508000X1.508000*%
G04 #@! TD*
G04 #@! TA.AperFunction,ComponentPad*
%ADD15C,1.508000*%
G04 #@! TD*
G04 #@! TA.AperFunction,ComponentPad*
%ADD16C,3.000000*%
G04 #@! TD*
G04 #@! TA.AperFunction,ComponentPad*
%ADD17R,1.350000X1.350000*%
G04 #@! TD*
G04 #@! TA.AperFunction,ComponentPad*
%ADD18C,1.350000*%
G04 #@! TD*
G04 #@! TA.AperFunction,Conductor*
%ADD19C,1.000000*%
G04 #@! TD*
G04 APERTURE END LIST*
D10*
X72500000Y-80950000D03*
D11*
X70000000Y-80950000D03*
X67500000Y-80950000D03*
X65000000Y-80950000D03*
X62500000Y-80950000D03*
X60000000Y-80950000D03*
D10*
X92500000Y-80950000D03*
D11*
X90000000Y-80950000D03*
X87500000Y-80950000D03*
X85000000Y-80950000D03*
X82500000Y-80950000D03*
X80000000Y-80950000D03*
D12*
X91200000Y-92500000D03*
D13*
X98800000Y-92500000D03*
D14*
X70190000Y-86000000D03*
D15*
X72730000Y-86000000D03*
X75270000Y-86000000D03*
X77810000Y-86000000D03*
D16*
X63000000Y-86500000D03*
X85000000Y-86500000D03*
X85000000Y-108500000D03*
X63000000Y-108500000D03*
D17*
X99790000Y-76000000D03*
D18*
X97250000Y-76000000D03*
X94710000Y-76000000D03*
X92170000Y-76000000D03*
X89630000Y-76000000D03*
X87090000Y-76000000D03*
X84550000Y-76000000D03*
X82010000Y-76000000D03*
X79470000Y-76000000D03*
X76930000Y-76000000D03*
X74390000Y-76000000D03*
X71850000Y-76000000D03*
X69310000Y-76000000D03*
X66770000Y-76000000D03*
X64230000Y-76000000D03*
X61690000Y-76000000D03*
X59150000Y-76000000D03*
X56610000Y-76000000D03*
X54070000Y-76000000D03*
D17*
X54070000Y-102000000D03*
D18*
X56610000Y-102000000D03*
X59150000Y-102000000D03*
X61690000Y-102000000D03*
X64230000Y-102000000D03*
X66770000Y-102000000D03*
X69310000Y-102000000D03*
X71850000Y-102000000D03*
X74390000Y-102000000D03*
X76930000Y-102000000D03*
X79470000Y-102000000D03*
X82010000Y-102000000D03*
X84550000Y-102000000D03*
X87090000Y-102000000D03*
X89630000Y-102000000D03*
X92170000Y-102000000D03*
X94710000Y-102000000D03*
X97250000Y-102000000D03*
X99790000Y-102000000D03*
D19*
X71000000Y-89000000D02*
X72730000Y-87270000D01*
X72730000Y-87270000D02*
X72730000Y-86000000D01*
X67070000Y-89000000D02*
X71000000Y-89000000D01*
X54070000Y-102000000D02*
X67070000Y-89000000D01*
G04 #@! TA.AperFunction,Conductor*
G36*
X104942539Y-73020185D02*
G01*
X104988294Y-73072989D01*
X104999500Y-73124500D01*
X104999500Y-111875500D01*
X104979815Y-111942539D01*
X104927011Y-111988294D01*
X104875500Y-111999500D01*
X49124500Y-111999500D01*
X49057461Y-111979815D01*
X49011706Y-111927011D01*
X49000500Y-111875500D01*
X49000500Y-107567763D01*
X53145787Y-107567763D01*
X53175413Y-107837013D01*
X53175415Y-107837024D01*
X53243926Y-108099082D01*
X53243928Y-108099088D01*
X53349870Y-108348390D01*
X53442397Y-108500000D01*
X53490979Y-108579605D01*
X53490986Y-108579615D01*
X53664253Y-108787819D01*
X53664259Y-108787824D01*
X53865998Y-108968582D01*
X54091910Y-109118044D01*
X54337176Y-109233020D01*
X54337183Y-109233022D01*
X54337185Y-109233023D01*
X54596557Y-109311057D01*
X54596564Y-109311058D01*
X54596569Y-109311060D01*
X54864561Y-109350500D01*
X54864566Y-109350500D01*
X55067636Y-109350500D01*
X55119133Y-109346730D01*
X55270156Y-109335677D01*
X55382758Y-109310593D01*
X55534546Y-109276782D01*
X55534548Y-109276781D01*
X55534553Y-109276780D01*
X55787558Y-109180014D01*
X56023777Y-109047441D01*
X56238177Y-108881888D01*
X56426186Y-108686881D01*
X56559888Y-108500001D01*
X60994390Y-108500001D01*
X61014804Y-108785433D01*
X61075628Y-109065037D01*
X61075630Y-109065043D01*
X61075631Y-109065046D01*
X61154604Y-109276779D01*
X61175635Y-109333166D01*
X61312770Y-109584309D01*
X61312775Y-109584317D01*
X61484254Y-109813387D01*
X61484270Y-109813405D01*
X61686594Y-110015729D01*
X61686612Y-110015745D01*
X61915682Y-110187224D01*
X61915690Y-110187229D01*
X62166833Y-110324364D01*
X62166832Y-110324364D01*
X62166836Y-110324365D01*
X62166839Y-110324367D01*
X62434954Y-110424369D01*
X62434960Y-110424370D01*
X62434962Y-110424371D01*
X62714566Y-110485195D01*
X62714568Y-110485195D01*
X62714572Y-110485196D01*
X62968220Y-110503337D01*
X62999999Y-110505610D01*
X63000000Y-110505610D01*
X63000001Y-110505610D01*
X63028595Y-110503564D01*
X63285428Y-110485196D01*
X63565046Y-110424369D01*
X63833161Y-110324367D01*
X64084315Y-110187226D01*
X64313395Y-110015739D01*
X64515739Y-109813395D01*
X64687226Y-109584315D01*
X64824367Y-109333161D01*
X64924369Y-109065046D01*
X64945354Y-108968581D01*
X64985195Y-108785433D01*
X64985195Y-108785432D01*
X64985196Y-108785428D01*
X65005610Y-108500001D01*
X82994390Y-108500001D01*
X83014804Y-108785433D01*
X83075628Y-109065037D01*
X83075630Y-109065043D01*
X83075631Y-109065046D01*
X83154604Y-109276779D01*
X83175635Y-109333166D01*
X83312770Y-109584309D01*
X83312775Y-109584317D01*
X83484254Y-109813387D01*
X83484270Y-109813405D01*
X83686594Y-110015729D01*
X83686612Y-110015745D01*
X83915682Y-110187224D01*
X83915690Y-110187229D01*
X84166833Y-110324364D01*
X84166832Y-110324364D01*
X84166836Y-110324365D01*
X84166839Y-110324367D01*
X84434954Y-110424369D01*
X84434960Y-110424370D01*
X84434962Y-110424371D01*
X84714566Y-110485195D01*
X84714568Y-110485195D01*
X84714572Y-110485196D01*
X84968220Y-110503337D01*
X84999999Y-110505610D01*
X85000000Y-110505610D01*
X85000001Y-110505610D01*
X85028595Y-110503564D01*
X85285428Y-110485196D01*
X85565046Y-110424369D01*
X85833161Y-110324367D01*
X86084315Y-110187226D01*
X86313395Y-110015739D01*
X86515739Y-109813395D01*
X86687226Y-109584315D01*
X86824367Y-109333161D01*
X86924369Y-109065046D01*
X86945354Y-108968581D01*
X86985195Y-108785433D01*
X86985195Y-108785432D01*
X86985196Y-108785428D01*
X87005610Y-108500000D01*
X86985196Y-108214572D01*
X86931840Y-107969300D01*
X86924371Y-107934962D01*
X86924370Y-107934960D01*
X86924369Y-107934954D01*
X86824367Y-107666839D01*
X86770268Y-107567765D01*
X86770267Y-107567763D01*
X98145787Y-107567763D01*
X98175413Y-107837013D01*
X98175415Y-107837024D01*
X98243926Y-108099082D01*
X98243928Y-108099088D01*
X98349870Y-108348390D01*
X98442397Y-108500000D01*
X98490979Y-108579605D01*
X98490986Y-108579615D01*
X98664253Y-108787819D01*
X98664259Y-108787824D01*
X98865998Y-108968582D01*
X99091910Y-109118044D01*
X99337176Y-109233020D01*
X99337183Y-109233022D01*
X99337185Y-109233023D01*
X99596557Y-109311057D01*
X99596564Y-109311058D01*
X99596569Y-109311060D01*
X99864561Y-109350500D01*
X99864566Y-109350500D01*
X100067636Y-109350500D01*
X100119133Y-109346730D01*
X100270156Y-109335677D01*
X100382758Y-109310593D01*
X100534546Y-109276782D01*
X100534548Y-109276781D01*
X100534553Y-109276780D01*
X100787558Y-109180014D01*
X101023777Y-109047441D01*
X101238177Y-108881888D01*
X101426186Y-108686881D01*
X101583799Y-108466579D01*
X101657787Y-108322669D01*
X101707649Y-108225690D01*
X101707651Y-108225684D01*
X101707656Y-108225675D01*
X101795118Y-107969305D01*
X101844319Y-107702933D01*
X101854212Y-107432235D01*
X101824586Y-107162982D01*
X101756072Y-106900912D01*
X101650130Y-106651610D01*
X101509018Y-106420390D01*
X101419747Y-106313119D01*
X101335746Y-106212180D01*
X101335740Y-106212175D01*
X101134002Y-106031418D01*
X100908092Y-105881957D01*
X100908090Y-105881956D01*
X100662824Y-105766980D01*
X100662819Y-105766978D01*
X100662814Y-105766976D01*
X100403442Y-105688942D01*
X100403428Y-105688939D01*
X100287791Y-105671921D01*
X100135439Y-105649500D01*
X99932369Y-105649500D01*
X99932364Y-105649500D01*
X99729844Y-105664323D01*
X99729831Y-105664325D01*
X99465453Y-105723217D01*
X99465446Y-105723220D01*
X99212439Y-105819987D01*
X98976226Y-105952557D01*
X98761822Y-106118112D01*
X98573822Y-106313109D01*
X98573816Y-106313116D01*
X98416202Y-106533419D01*
X98416199Y-106533424D01*
X98292350Y-106774309D01*
X98292343Y-106774327D01*
X98204884Y-107030685D01*
X98204881Y-107030699D01*
X98155681Y-107297068D01*
X98155680Y-107297075D01*
X98145787Y-107567763D01*
X86770267Y-107567763D01*
X86687229Y-107415690D01*
X86687224Y-107415682D01*
X86515745Y-107186612D01*
X86515729Y-107186594D01*
X86313405Y-106984270D01*
X86313387Y-106984254D01*
X86084317Y-106812775D01*
X86084309Y-106812770D01*
X85833166Y-106675635D01*
X85833167Y-106675635D01*
X85725915Y-106635632D01*
X85565046Y-106575631D01*
X85565043Y-106575630D01*
X85565037Y-106575628D01*
X85285433Y-106514804D01*
X85000001Y-106494390D01*
X84999999Y-106494390D01*
X84714566Y-106514804D01*
X84434962Y-106575628D01*
X84166833Y-106675635D01*
X83915690Y-106812770D01*
X83915682Y-106812775D01*
X83686612Y-106984254D01*
X83686594Y-106984270D01*
X83484270Y-107186594D01*
X83484254Y-107186612D01*
X83312775Y-107415682D01*
X83312770Y-107415690D01*
X83175635Y-107666833D01*
X83075628Y-107934962D01*
X83014804Y-108214566D01*
X82994390Y-108499998D01*
X82994390Y-108500001D01*
X65005610Y-108500001D01*
X65005610Y-108500000D01*
X64985196Y-108214572D01*
X64931840Y-107969300D01*
X64924371Y-107934962D01*
X64924370Y-107934960D01*
X64924369Y-107934954D01*
X64824367Y-107666839D01*
X64770268Y-107567765D01*
X64687229Y-107415690D01*
X64687224Y-107415682D01*
X64515745Y-107186612D01*
X64515729Y-107186594D01*
X64313405Y-106984270D01*
X64313387Y-106984254D01*
X64084317Y-106812775D01*
X64084309Y-106812770D01*
X63833166Y-106675635D01*
X63833167Y-106675635D01*
X63725914Y-106635632D01*
X63565046Y-106575631D01*
X63565043Y-106575630D01*
X63565037Y-106575628D01*
X63285433Y-106514804D01*
X63000001Y-106494390D01*
X62999999Y-106494390D01*
X62714566Y-106514804D01*
X62434962Y-106575628D01*
X62166833Y-106675635D01*
X61915690Y-106812770D01*
X61915682Y-106812775D01*
X61686612Y-106984254D01*
X61686594Y-106984270D01*
X61484270Y-107186594D01*
X61484254Y-107186612D01*
X61312775Y-107415682D01*
X61312770Y-107415690D01*
X61175635Y-107666833D01*
X61075628Y-107934962D01*
X61014804Y-108214566D01*
X60994390Y-108499998D01*
X60994390Y-108500001D01*
X56559888Y-108500001D01*
X56583799Y-108466579D01*
X56657787Y-108322669D01*
X56707649Y-108225690D01*
X56707651Y-108225684D01*
X56707656Y-108225675D01*
X56795118Y-107969305D01*
X56844319Y-107702933D01*
X56854212Y-107432235D01*
X56824586Y-107162982D01*
X56756072Y-106900912D01*
X56650130Y-106651610D01*
X56509018Y-106420390D01*
X56419747Y-106313119D01*
X56335746Y-106212180D01*
X56335740Y-106212175D01*
X56134002Y-106031418D01*
X55908092Y-105881957D01*
X55908090Y-105881956D01*
X55662824Y-105766980D01*
X55662819Y-105766978D01*
X55662814Y-105766976D01*
X55403442Y-105688942D01*
X55403428Y-105688939D01*
X55287791Y-105671921D01*
X55135439Y-105649500D01*
X54932369Y-105649500D01*
X54932364Y-105649500D01*
X54729844Y-105664323D01*
X54729831Y-105664325D01*
X54465453Y-105723217D01*
X54465446Y-105723220D01*
X54212439Y-105819987D01*
X53976226Y-105952557D01*
X53761822Y-106118112D01*
X53573822Y-106313109D01*
X53573816Y-106313116D01*
X53416202Y-106533419D01*
X53416199Y-106533424D01*
X53292350Y-106774309D01*
X53292343Y-106774327D01*
X53204884Y-107030685D01*
X53204881Y-107030699D01*
X53155681Y-107297068D01*
X53155680Y-107297075D01*
X53145787Y-107567763D01*
X49000500Y-107567763D01*
X49000500Y-101441411D01*
X49550771Y-101441411D01*
X49560707Y-101675341D01*
X49560707Y-101675342D01*
X49610038Y-101904236D01*
X49689211Y-102101265D01*
X49697340Y-102121494D01*
X49728271Y-102171729D01*
X49820103Y-102320875D01*
X49974793Y-102496637D01*
X49974797Y-102496641D01*
X50156969Y-102643734D01*
X50156969Y-102643735D01*
X50361377Y-102757924D01*
X50361381Y-102757926D01*
X50582151Y-102835929D01*
X50710929Y-102858010D01*
X50812919Y-102875499D01*
X50812928Y-102875500D01*
X50988433Y-102875500D01*
X51163296Y-102860617D01*
X51163299Y-102860616D01*
X51163301Y-102860616D01*
X51389890Y-102801617D01*
X51520242Y-102742693D01*
X51564097Y-102722870D01*
X52894500Y-102722870D01*
X52894501Y-102722876D01*
X52900908Y-102782483D01*
X52951202Y-102917328D01*
X52951206Y-102917335D01*
X53037452Y-103032544D01*
X53037455Y-103032547D01*
X53152664Y-103118793D01*
X53152671Y-103118797D01*
X53287517Y-103169091D01*
X53287516Y-103169091D01*
X53294444Y-103169835D01*
X53347127Y-103175500D01*
X54792872Y-103175499D01*
X54852483Y-103169091D01*
X54987331Y-103118796D01*
X55102546Y-103032546D01*
X55188796Y-102917331D01*
X55239091Y-102782483D01*
X55245500Y-102722873D01*
X55245499Y-102388632D01*
X55265183Y-102321595D01*
X55317987Y-102275840D01*
X55387146Y-102265896D01*
X55450701Y-102294921D01*
X55488476Y-102353699D01*
X55488765Y-102354700D01*
X55509180Y-102426454D01*
X55509183Y-102426460D01*
X55583451Y-102575610D01*
X55606288Y-102621472D01*
X55737573Y-102795322D01*
X55898568Y-102942088D01*
X55898575Y-102942092D01*
X55898576Y-102942093D01*
X56083786Y-103056770D01*
X56083792Y-103056773D01*
X56106664Y-103065633D01*
X56286931Y-103135470D01*
X56501074Y-103175500D01*
X56501076Y-103175500D01*
X56718924Y-103175500D01*
X56718926Y-103175500D01*
X56933069Y-103135470D01*
X57136210Y-103056772D01*
X57321432Y-102942088D01*
X57482427Y-102795322D01*
X57613712Y-102621472D01*
X57710817Y-102426459D01*
X57760734Y-102251016D01*
X57798013Y-102191926D01*
X57861322Y-102162368D01*
X57930562Y-102171730D01*
X57983748Y-102217039D01*
X57999264Y-102251013D01*
X58049134Y-102426287D01*
X58049184Y-102426462D01*
X58123451Y-102575610D01*
X58146288Y-102621472D01*
X58277573Y-102795322D01*
X58438568Y-102942088D01*
X58438575Y-102942092D01*
X58438576Y-102942093D01*
X58623786Y-103056770D01*
X58623792Y-103056773D01*
X58646664Y-103065633D01*
X58826931Y-103135470D01*
X59041074Y-103175500D01*
X59041076Y-103175500D01*
X59258924Y-103175500D01*
X59258926Y-103175500D01*
X59473069Y-103135470D01*
X59676210Y-103056772D01*
X59861432Y-102942088D01*
X60022427Y-102795322D01*
X60153712Y-102621472D01*
X60250817Y-102426459D01*
X60300734Y-102251016D01*
X60338013Y-102191926D01*
X60401322Y-102162368D01*
X60470562Y-102171730D01*
X60523748Y-102217039D01*
X60539264Y-102251013D01*
X60589134Y-102426287D01*
X60589184Y-102426462D01*
X60663451Y-102575610D01*
X60686288Y-102621472D01*
X60817573Y-102795322D01*
X60978568Y-102942088D01*
X60978575Y-102942092D01*
X60978576Y-102942093D01*
X61163786Y-103056770D01*
X61163792Y-103056773D01*
X61186664Y-103065633D01*
X61366931Y-103135470D01*
X61581074Y-103175500D01*
X61581076Y-103175500D01*
X61798924Y-103175500D01*
X61798926Y-103175500D01*
X62013069Y-103135470D01*
X62216210Y-103056772D01*
X62401432Y-102942088D01*
X62562427Y-102795322D01*
X62693712Y-102621472D01*
X62790817Y-102426459D01*
X62840734Y-102251016D01*
X62878013Y-102191926D01*
X62941322Y-102162368D01*
X63010562Y-102171730D01*
X63063748Y-102217039D01*
X63079264Y-102251013D01*
X63129134Y-102426287D01*
X63129184Y-102426462D01*
X63203451Y-102575610D01*
X63226288Y-102621472D01*
X63357573Y-102795322D01*
X63518568Y-102942088D01*
X63518575Y-102942092D01*
X63518576Y-102942093D01*
X63703786Y-103056770D01*
X63703792Y-103056773D01*
X63726664Y-103065633D01*
X63906931Y-103135470D01*
X64121074Y-103175500D01*
X64121076Y-103175500D01*
X64338924Y-103175500D01*
X64338926Y-103175500D01*
X64553069Y-103135470D01*
X64756210Y-103056772D01*
X64941432Y-102942088D01*
X65102427Y-102795322D01*
X65233712Y-102621472D01*
X65330817Y-102426459D01*
X65380994Y-102250103D01*
X65418271Y-102191013D01*
X65481581Y-102161455D01*
X65550820Y-102170817D01*
X65604007Y-102216126D01*
X65619525Y-102250105D01*
X65669650Y-102426274D01*
X65669655Y-102426287D01*
X65766711Y-102621201D01*
X65766719Y-102621214D01*
X65778987Y-102637459D01*
X66194814Y-102221631D01*
X66256137Y-102188146D01*
X66325828Y-102193130D01*
X66379443Y-102232000D01*
X66460464Y-102333599D01*
X66460466Y-102333600D01*
X66532723Y-102382865D01*
X66577025Y-102436894D01*
X66585083Y-102506297D01*
X66554340Y-102569040D01*
X66550552Y-102572999D01*
X66134831Y-102988719D01*
X66244013Y-103056322D01*
X66244014Y-103056323D01*
X66447069Y-103134986D01*
X66661122Y-103175000D01*
X66878878Y-103175000D01*
X67092929Y-103134986D01*
X67092939Y-103134983D01*
X67295985Y-103056323D01*
X67295989Y-103056321D01*
X67405166Y-102988720D01*
X67405166Y-102988719D01*
X66992057Y-102575610D01*
X66958572Y-102514287D01*
X66963556Y-102444595D01*
X67005428Y-102388662D01*
X67025930Y-102376212D01*
X67026357Y-102376007D01*
X67125798Y-102283740D01*
X67148032Y-102245228D01*
X67198597Y-102197014D01*
X67267204Y-102183790D01*
X67332069Y-102209757D01*
X67343100Y-102219548D01*
X67761011Y-102637459D01*
X67773284Y-102621208D01*
X67773285Y-102621205D01*
X67870344Y-102426287D01*
X67870350Y-102426272D01*
X67920474Y-102250106D01*
X67957753Y-102191012D01*
X68021063Y-102161455D01*
X68090302Y-102170817D01*
X68143489Y-102216127D01*
X68159006Y-102250106D01*
X68209180Y-102426454D01*
X68209183Y-102426460D01*
X68283451Y-102575610D01*
X68306288Y-102621472D01*
X68437573Y-102795322D01*
X68598568Y-102942088D01*
X68598575Y-102942092D01*
X68598576Y-102942093D01*
X68783786Y-103056770D01*
X68783792Y-103056773D01*
X68806664Y-103065633D01*
X68986931Y-103135470D01*
X69201074Y-103175500D01*
X69201076Y-103175500D01*
X69418924Y-103175500D01*
X69418926Y-103175500D01*
X69633069Y-103135470D01*
X69836210Y-103056772D01*
X70021432Y-102942088D01*
X70182427Y-102795322D01*
X70313712Y-102621472D01*
X70410817Y-102426459D01*
X70460734Y-102251016D01*
X70498013Y-102191926D01*
X70561322Y-102162368D01*
X70630562Y-102171730D01*
X70683748Y-102217039D01*
X70699264Y-102251013D01*
X70749134Y-102426287D01*
X70749184Y-102426462D01*
X70823451Y-102575610D01*
X70846288Y-102621472D01*
X70977573Y-102795322D01*
X71138568Y-102942088D01*
X71138575Y-102942092D01*
X71138576Y-102942093D01*
X71323786Y-103056770D01*
X71323792Y-103056773D01*
X71346664Y-103065633D01*
X71526931Y-103135470D01*
X71741074Y-103175500D01*
X71741076Y-103175500D01*
X71958924Y-103175500D01*
X71958926Y-103175500D01*
X72173069Y-103135470D01*
X72376210Y-103056772D01*
X72561432Y-102942088D01*
X72722427Y-102795322D01*
X72853712Y-102621472D01*
X72950817Y-102426459D01*
X73000734Y-102251016D01*
X73038013Y-102191926D01*
X73101322Y-102162368D01*
X73170562Y-102171730D01*
X73223748Y-102217039D01*
X73239264Y-102251013D01*
X73289134Y-102426287D01*
X73289184Y-102426462D01*
X73363451Y-102575610D01*
X73386288Y-102621472D01*
X73517573Y-102795322D01*
X73678568Y-102942088D01*
X73678575Y-102942092D01*
X73678576Y-102942093D01*
X73863786Y-103056770D01*
X73863792Y-103056773D01*
X73886664Y-103065633D01*
X74066931Y-103135470D01*
X74281074Y-103175500D01*
X74281076Y-103175500D01*
X74498924Y-103175500D01*
X74498926Y-103175500D01*
X74713069Y-103135470D01*
X74916210Y-103056772D01*
X75101432Y-102942088D01*
X75262427Y-102795322D01*
X75393712Y-102621472D01*
X75490817Y-102426459D01*
X75540734Y-102251016D01*
X75578013Y-102191926D01*
X75641322Y-102162368D01*
X75710562Y-102171730D01*
X75763748Y-102217039D01*
X75779264Y-102251013D01*
X75829134Y-102426287D01*
X75829184Y-102426462D01*
X75903451Y-102575610D01*
X75926288Y-102621472D01*
X76057573Y-102795322D01*
X76218568Y-102942088D01*
X76218575Y-102942092D01*
X76218576Y-102942093D01*
X76403786Y-103056770D01*
X76403792Y-103056773D01*
X76426664Y-103065633D01*
X76606931Y-103135470D01*
X76821074Y-103175500D01*
X76821076Y-103175500D01*
X77038924Y-103175500D01*
X77038926Y-103175500D01*
X77253069Y-103135470D01*
X77456210Y-103056772D01*
X77641432Y-102942088D01*
X77802427Y-102795322D01*
X77933712Y-102621472D01*
X78030817Y-102426459D01*
X78080734Y-102251016D01*
X78118013Y-102191926D01*
X78181322Y-102162368D01*
X78250562Y-102171730D01*
X78303748Y-102217039D01*
X78319264Y-102251013D01*
X78369134Y-102426287D01*
X78369184Y-102426462D01*
X78443451Y-102575610D01*
X78466288Y-102621472D01*
X78597573Y-102795322D01*
X78758568Y-102942088D01*
X78758575Y-102942092D01*
X78758576Y-102942093D01*
X78943786Y-103056770D01*
X78943792Y-103056773D01*
X78966664Y-103065633D01*
X79146931Y-103135470D01*
X79361074Y-103175500D01*
X79361076Y-103175500D01*
X79578924Y-103175500D01*
X79578926Y-103175500D01*
X79793069Y-103135470D01*
X79996210Y-103056772D01*
X80181432Y-102942088D01*
X80342427Y-102795322D01*
X80473712Y-102621472D01*
X80570817Y-102426459D01*
X80620734Y-102251016D01*
X80658013Y-102191926D01*
X80721322Y-102162368D01*
X80790562Y-102171730D01*
X80843748Y-102217039D01*
X80859264Y-102251013D01*
X80909134Y-102426287D01*
X80909184Y-102426462D01*
X80983451Y-102575610D01*
X81006288Y-102621472D01*
X81137573Y-102795322D01*
X81298568Y-102942088D01*
X81298575Y-102942092D01*
X81298576Y-102942093D01*
X81483786Y-103056770D01*
X81483792Y-103056773D01*
X81506664Y-103065633D01*
X81686931Y-103135470D01*
X81901074Y-103175500D01*
X81901076Y-103175500D01*
X82118924Y-103175500D01*
X82118926Y-103175500D01*
X82333069Y-103135470D01*
X82536210Y-103056772D01*
X82721432Y-102942088D01*
X82882427Y-102795322D01*
X83013712Y-102621472D01*
X83110817Y-102426459D01*
X83160734Y-102251016D01*
X83198013Y-102191926D01*
X83261322Y-102162368D01*
X83330562Y-102171730D01*
X83383748Y-102217039D01*
X83399264Y-102251013D01*
X83449134Y-102426287D01*
X83449184Y-102426462D01*
X83523451Y-102575610D01*
X83546288Y-102621472D01*
X83677573Y-102795322D01*
X83838568Y-102942088D01*
X83838575Y-102942092D01*
X83838576Y-102942093D01*
X84023786Y-103056770D01*
X84023792Y-103056773D01*
X84046664Y-103065633D01*
X84226931Y-103135470D01*
X84441074Y-103175500D01*
X84441076Y-103175500D01*
X84658924Y-103175500D01*
X84658926Y-103175500D01*
X84873069Y-103135470D01*
X85076210Y-103056772D01*
X85261432Y-102942088D01*
X85422427Y-102795322D01*
X85553712Y-102621472D01*
X85650817Y-102426459D01*
X85700734Y-102251015D01*
X85738011Y-102191926D01*
X85801320Y-102162368D01*
X85870560Y-102171729D01*
X85923747Y-102217039D01*
X85939265Y-102251019D01*
X85989180Y-102426454D01*
X85989183Y-102426460D01*
X86063451Y-102575610D01*
X86086288Y-102621472D01*
X86217573Y-102795322D01*
X86378568Y-102942088D01*
X86378575Y-102942092D01*
X86378576Y-102942093D01*
X86563786Y-103056770D01*
X86563792Y-103056773D01*
X86586664Y-103065633D01*
X86766931Y-103135470D01*
X86981074Y-103175500D01*
X86981076Y-103175500D01*
X87198924Y-103175500D01*
X87198926Y-103175500D01*
X87413069Y-103135470D01*
X87616210Y-103056772D01*
X87801432Y-102942088D01*
X87962427Y-102795322D01*
X88093712Y-102621472D01*
X88190817Y-102426459D01*
X88240734Y-102251016D01*
X88278013Y-102191926D01*
X88341322Y-102162368D01*
X88410562Y-102171730D01*
X88463748Y-102217039D01*
X88479264Y-102251013D01*
X88529134Y-102426287D01*
X88529184Y-102426462D01*
X88603451Y-102575610D01*
X88626288Y-102621472D01*
X88757573Y-102795322D01*
X88918568Y-102942088D01*
X88918575Y-102942092D01*
X88918576Y-102942093D01*
X89103786Y-103056770D01*
X89103792Y-103056773D01*
X89126664Y-103065633D01*
X89306931Y-103135470D01*
X89521074Y-103175500D01*
X89521076Y-103175500D01*
X89738924Y-103175500D01*
X89738926Y-103175500D01*
X89953069Y-103135470D01*
X90156210Y-103056772D01*
X90341432Y-102942088D01*
X90502427Y-102795322D01*
X90633712Y-102621472D01*
X90730817Y-102426459D01*
X90780734Y-102251016D01*
X90818013Y-102191926D01*
X90881322Y-102162368D01*
X90950562Y-102171730D01*
X91003748Y-102217039D01*
X91019264Y-102251013D01*
X91069134Y-102426287D01*
X91069184Y-102426462D01*
X91143451Y-102575610D01*
X91166288Y-102621472D01*
X91297573Y-102795322D01*
X91458568Y-102942088D01*
X91458575Y-102942092D01*
X91458576Y-102942093D01*
X91643786Y-103056770D01*
X91643792Y-103056773D01*
X91666664Y-103065633D01*
X91846931Y-103135470D01*
X92061074Y-103175500D01*
X92061076Y-103175500D01*
X92278924Y-103175500D01*
X92278926Y-103175500D01*
X92493069Y-103135470D01*
X92696210Y-103056772D01*
X92881432Y-102942088D01*
X93042427Y-102795322D01*
X93173712Y-102621472D01*
X93270817Y-102426459D01*
X93320734Y-102251016D01*
X93358013Y-102191926D01*
X93421322Y-102162368D01*
X93490562Y-102171730D01*
X93543748Y-102217039D01*
X93559264Y-102251013D01*
X93609134Y-102426287D01*
X93609184Y-102426462D01*
X93683451Y-102575610D01*
X93706288Y-102621472D01*
X93837573Y-102795322D01*
X93998568Y-102942088D01*
X93998575Y-102942092D01*
X93998576Y-102942093D01*
X94183786Y-103056770D01*
X94183792Y-103056773D01*
X94206664Y-103065633D01*
X94386931Y-103135470D01*
X94601074Y-103175500D01*
X94601076Y-103175500D01*
X94818924Y-103175500D01*
X94818926Y-103175500D01*
X95033069Y-103135470D01*
X95236210Y-103056772D01*
X95421432Y-102942088D01*
X95582427Y-102795322D01*
X95713712Y-102621472D01*
X95810817Y-102426459D01*
X95860734Y-102251015D01*
X95898011Y-102191926D01*
X95961320Y-102162368D01*
X96030560Y-102171729D01*
X96083747Y-102217039D01*
X96099265Y-102251019D01*
X96149180Y-102426454D01*
X96149183Y-102426460D01*
X96223451Y-102575610D01*
X96246288Y-102621472D01*
X96377573Y-102795322D01*
X96538568Y-102942088D01*
X96538575Y-102942092D01*
X96538576Y-102942093D01*
X96723786Y-103056770D01*
X96723792Y-103056773D01*
X96746664Y-103065633D01*
X96926931Y-103135470D01*
X97141074Y-103175500D01*
X97141076Y-103175500D01*
X97358924Y-103175500D01*
X97358926Y-103175500D01*
X97573069Y-103135470D01*
X97776210Y-103056772D01*
X97961432Y-102942088D01*
X98122427Y-102795322D01*
X98253712Y-102621472D01*
X98350817Y-102426459D01*
X98400734Y-102251016D01*
X98438013Y-102191926D01*
X98501322Y-102162368D01*
X98570562Y-102171730D01*
X98623748Y-102217039D01*
X98639264Y-102251013D01*
X98689134Y-102426287D01*
X98689184Y-102426462D01*
X98763451Y-102575610D01*
X98786288Y-102621472D01*
X98917573Y-102795322D01*
X99078568Y-102942088D01*
X99078575Y-102942092D01*
X99078576Y-102942093D01*
X99263786Y-103056770D01*
X99263792Y-103056773D01*
X99286664Y-103065633D01*
X99466931Y-103135470D01*
X99681074Y-103175500D01*
X99681076Y-103175500D01*
X99898924Y-103175500D01*
X99898926Y-103175500D01*
X100113069Y-103135470D01*
X100316210Y-103056772D01*
X100501432Y-102942088D01*
X100662427Y-102795322D01*
X100793712Y-102621472D01*
X100890817Y-102426459D01*
X100950435Y-102216923D01*
X100970536Y-102000000D01*
X100950435Y-101783077D01*
X100890817Y-101573541D01*
X100825024Y-101441411D01*
X101550771Y-101441411D01*
X101560707Y-101675341D01*
X101560707Y-101675342D01*
X101610038Y-101904236D01*
X101689211Y-102101265D01*
X101697340Y-102121494D01*
X101728271Y-102171729D01*
X101820103Y-102320875D01*
X101974793Y-102496637D01*
X101974797Y-102496641D01*
X102156969Y-102643734D01*
X102156969Y-102643735D01*
X102361377Y-102757924D01*
X102361381Y-102757926D01*
X102582151Y-102835929D01*
X102710929Y-102858010D01*
X102812919Y-102875499D01*
X102812928Y-102875500D01*
X102988433Y-102875500D01*
X103163296Y-102860617D01*
X103163299Y-102860616D01*
X103163301Y-102860616D01*
X103389890Y-102801617D01*
X103520242Y-102742693D01*
X103603244Y-102705175D01*
X103603245Y-102705173D01*
X103603250Y-102705172D01*
X103744630Y-102609615D01*
X103797231Y-102574064D01*
X103797232Y-102574062D01*
X103797241Y-102574057D01*
X103966283Y-102412044D01*
X104105513Y-102223792D01*
X104210926Y-102014718D01*
X104279489Y-101790837D01*
X104309229Y-101558589D01*
X104299292Y-101324655D01*
X104249962Y-101095766D01*
X104234751Y-101057913D01*
X104188667Y-100943228D01*
X104162660Y-100878506D01*
X104050731Y-100696722D01*
X104039896Y-100679124D01*
X103885206Y-100503362D01*
X103885205Y-100503361D01*
X103885203Y-100503359D01*
X103703030Y-100356265D01*
X103703030Y-100356264D01*
X103498622Y-100242075D01*
X103277852Y-100164072D01*
X103277851Y-100164071D01*
X103277849Y-100164071D01*
X103277845Y-100164070D01*
X103277844Y-100164070D01*
X103047080Y-100124500D01*
X103047072Y-100124500D01*
X102871572Y-100124500D01*
X102871567Y-100124500D01*
X102696703Y-100139382D01*
X102470110Y-100198382D01*
X102256755Y-100294824D01*
X102256747Y-100294829D01*
X102062768Y-100425935D01*
X102062759Y-100425943D01*
X101893721Y-100587951D01*
X101754485Y-100776210D01*
X101649074Y-100985280D01*
X101580510Y-101209166D01*
X101550771Y-101441411D01*
X100825024Y-101441411D01*
X100793712Y-101378528D01*
X100662427Y-101204678D01*
X100501432Y-101057912D01*
X100501428Y-101057909D01*
X100501423Y-101057906D01*
X100316213Y-100943229D01*
X100316207Y-100943226D01*
X100231112Y-100910260D01*
X100113069Y-100864530D01*
X99898926Y-100824500D01*
X99681074Y-100824500D01*
X99466931Y-100864530D01*
X99423896Y-100881202D01*
X99263792Y-100943226D01*
X99263786Y-100943229D01*
X99078576Y-101057906D01*
X99078566Y-101057913D01*
X98917574Y-101204676D01*
X98786288Y-101378527D01*
X98689183Y-101573539D01*
X98689180Y-101573545D01*
X98639266Y-101748980D01*
X98601987Y-101808073D01*
X98538678Y-101837631D01*
X98469438Y-101828269D01*
X98416252Y-101782960D01*
X98400734Y-101748980D01*
X98350819Y-101573545D01*
X98350816Y-101573539D01*
X98285024Y-101441411D01*
X98253712Y-101378528D01*
X98122427Y-101204678D01*
X97961432Y-101057912D01*
X97961428Y-101057909D01*
X97961423Y-101057906D01*
X97776213Y-100943229D01*
X97776207Y-100943226D01*
X97691112Y-100910260D01*
X97573069Y-100864530D01*
X97358926Y-100824500D01*
X97141074Y-100824500D01*
X96926931Y-100864530D01*
X96883896Y-100881202D01*
X96723792Y-100943226D01*
X96723786Y-100943229D01*
X96538576Y-101057906D01*
X96538566Y-101057913D01*
X96377574Y-101204676D01*
X96246288Y-101378527D01*
X96149183Y-101573539D01*
X96149180Y-101573545D01*
X96099265Y-101748980D01*
X96061986Y-101808074D01*
X95998676Y-101837631D01*
X95929437Y-101828269D01*
X95876250Y-101782959D01*
X95860735Y-101748986D01*
X95810817Y-101573541D01*
X95810815Y-101573537D01*
X95745024Y-101441411D01*
X95713712Y-101378528D01*
X95582427Y-101204678D01*
X95421432Y-101057912D01*
X95421428Y-101057909D01*
X95421423Y-101057906D01*
X95236213Y-100943229D01*
X95236207Y-100943226D01*
X95151112Y-100910260D01*
X95033069Y-100864530D01*
X94818926Y-100824500D01*
X94601074Y-100824500D01*
X94386931Y-100864530D01*
X94343896Y-100881202D01*
X94183792Y-100943226D01*
X94183786Y-100943229D01*
X93998576Y-101057906D01*
X93998566Y-101057913D01*
X93837574Y-101204676D01*
X93706288Y-101378527D01*
X93609183Y-101573539D01*
X93609180Y-101573545D01*
X93559266Y-101748980D01*
X93521987Y-101808073D01*
X93458678Y-101837631D01*
X93389438Y-101828269D01*
X93336252Y-101782960D01*
X93320734Y-101748980D01*
X93270819Y-101573545D01*
X93270816Y-101573539D01*
X93205024Y-101441411D01*
X93173712Y-101378528D01*
X93042427Y-101204678D01*
X92881432Y-101057912D01*
X92881428Y-101057909D01*
X92881423Y-101057906D01*
X92696213Y-100943229D01*
X92696207Y-100943226D01*
X92611113Y-100910260D01*
X92493069Y-100864530D01*
X92278926Y-100824500D01*
X92061074Y-100824500D01*
X91846931Y-100864530D01*
X91803896Y-100881202D01*
X91643792Y-100943226D01*
X91643786Y-100943229D01*
X91458576Y-101057906D01*
X91458566Y-101057913D01*
X91297574Y-101204676D01*
X91166288Y-101378527D01*
X91069183Y-101573539D01*
X91069180Y-101573545D01*
X91019266Y-101748980D01*
X90981987Y-101808073D01*
X90918678Y-101837631D01*
X90849438Y-101828269D01*
X90796252Y-101782960D01*
X90780734Y-101748980D01*
X90730819Y-101573545D01*
X90730816Y-101573539D01*
X90665024Y-101441411D01*
X90633712Y-101378528D01*
X90502427Y-101204678D01*
X90341432Y-101057912D01*
X90341428Y-101057909D01*
X90341423Y-101057906D01*
X90156213Y-100943229D01*
X90156207Y-100943226D01*
X90071113Y-100910260D01*
X89953069Y-100864530D01*
X89738926Y-100824500D01*
X89521074Y-100824500D01*
X89306931Y-100864530D01*
X89263896Y-100881202D01*
X89103792Y-100943226D01*
X89103786Y-100943229D01*
X88918576Y-101057906D01*
X88918566Y-101057913D01*
X88757574Y-101204676D01*
X88626288Y-101378527D01*
X88529183Y-101573539D01*
X88529180Y-101573545D01*
X88479266Y-101748980D01*
X88441987Y-101808073D01*
X88378678Y-101837631D01*
X88309438Y-101828269D01*
X88256252Y-101782960D01*
X88240734Y-101748980D01*
X88190819Y-101573545D01*
X88190816Y-101573539D01*
X88125024Y-101441411D01*
X88093712Y-101378528D01*
X87962427Y-101204678D01*
X87801432Y-101057912D01*
X87801428Y-101057909D01*
X87801423Y-101057906D01*
X87616213Y-100943229D01*
X87616207Y-100943226D01*
X87531113Y-100910260D01*
X87413069Y-100864530D01*
X87198926Y-100824500D01*
X86981074Y-100824500D01*
X86766931Y-100864530D01*
X86723896Y-100881202D01*
X86563792Y-100943226D01*
X86563786Y-100943229D01*
X86378576Y-101057906D01*
X86378566Y-101057913D01*
X86217574Y-101204676D01*
X86086288Y-101378527D01*
X85989183Y-101573539D01*
X85989180Y-101573545D01*
X85939265Y-101748980D01*
X85901986Y-101808074D01*
X85838676Y-101837631D01*
X85769437Y-101828269D01*
X85716250Y-101782959D01*
X85700735Y-101748986D01*
X85650817Y-101573541D01*
X85650815Y-101573537D01*
X85585024Y-101441411D01*
X85553712Y-101378528D01*
X85422427Y-101204678D01*
X85261432Y-101057912D01*
X85261428Y-101057909D01*
X85261423Y-101057906D01*
X85076213Y-100943229D01*
X85076207Y-100943226D01*
X84991112Y-100910260D01*
X84873069Y-100864530D01*
X84658926Y-100824500D01*
X84441074Y-100824500D01*
X84226931Y-100864530D01*
X84183896Y-100881202D01*
X84023792Y-100943226D01*
X84023786Y-100943229D01*
X83838576Y-101057906D01*
X83838566Y-101057913D01*
X83677574Y-101204676D01*
X83546288Y-101378527D01*
X83449183Y-101573539D01*
X83449180Y-101573545D01*
X83399266Y-101748980D01*
X83361987Y-101808073D01*
X83298678Y-101837631D01*
X83229438Y-101828269D01*
X83176252Y-101782960D01*
X83160734Y-101748980D01*
X83110819Y-101573545D01*
X83110816Y-101573539D01*
X83045024Y-101441411D01*
X83013712Y-101378528D01*
X82882427Y-101204678D01*
X82721432Y-101057912D01*
X82721428Y-101057909D01*
X82721423Y-101057906D01*
X82536213Y-100943229D01*
X82536207Y-100943226D01*
X82451113Y-100910260D01*
X82333069Y-100864530D01*
X82118926Y-100824500D01*
X81901074Y-100824500D01*
X81686931Y-100864530D01*
X81643896Y-100881202D01*
X81483792Y-100943226D01*
X81483786Y-100943229D01*
X81298576Y-101057906D01*
X81298566Y-101057913D01*
X81137574Y-101204676D01*
X81006288Y-101378527D01*
X80909183Y-101573539D01*
X80909180Y-101573545D01*
X80859266Y-101748980D01*
X80821987Y-101808073D01*
X80758678Y-101837631D01*
X80689438Y-101828269D01*
X80636252Y-101782960D01*
X80620734Y-101748980D01*
X80570819Y-101573545D01*
X80570816Y-101573539D01*
X80505024Y-101441411D01*
X80473712Y-101378528D01*
X80342427Y-101204678D01*
X80181432Y-101057912D01*
X80181428Y-101057909D01*
X80181423Y-101057906D01*
X79996213Y-100943229D01*
X79996207Y-100943226D01*
X79911112Y-100910260D01*
X79793069Y-100864530D01*
X79578926Y-100824500D01*
X79361074Y-100824500D01*
X79146931Y-100864530D01*
X79103896Y-100881202D01*
X78943792Y-100943226D01*
X78943786Y-100943229D01*
X78758576Y-101057906D01*
X78758566Y-101057913D01*
X78597574Y-101204676D01*
X78466288Y-101378527D01*
X78369183Y-101573539D01*
X78369180Y-101573545D01*
X78319266Y-101748980D01*
X78281987Y-101808073D01*
X78218678Y-101837631D01*
X78149438Y-101828269D01*
X78096252Y-101782960D01*
X78080734Y-101748980D01*
X78030819Y-101573545D01*
X78030816Y-101573539D01*
X77965024Y-101441411D01*
X77933712Y-101378528D01*
X77802427Y-101204678D01*
X77641432Y-101057912D01*
X77641428Y-101057909D01*
X77641423Y-101057906D01*
X77456213Y-100943229D01*
X77456207Y-100943226D01*
X77371112Y-100910260D01*
X77253069Y-100864530D01*
X77038926Y-100824500D01*
X76821074Y-100824500D01*
X76606931Y-100864530D01*
X76563896Y-100881202D01*
X76403792Y-100943226D01*
X76403786Y-100943229D01*
X76218576Y-101057906D01*
X76218566Y-101057913D01*
X76057574Y-101204676D01*
X75926288Y-101378527D01*
X75829183Y-101573539D01*
X75829180Y-101573545D01*
X75779266Y-101748980D01*
X75741987Y-101808073D01*
X75678678Y-101837631D01*
X75609438Y-101828269D01*
X75556252Y-101782960D01*
X75540734Y-101748980D01*
X75490819Y-101573545D01*
X75490816Y-101573539D01*
X75425024Y-101441411D01*
X75393712Y-101378528D01*
X75262427Y-101204678D01*
X75101432Y-101057912D01*
X75101428Y-101057909D01*
X75101423Y-101057906D01*
X74916213Y-100943229D01*
X74916207Y-100943226D01*
X74831112Y-100910260D01*
X74713069Y-100864530D01*
X74498926Y-100824500D01*
X74281074Y-100824500D01*
X74066931Y-100864530D01*
X74023896Y-100881202D01*
X73863792Y-100943226D01*
X73863786Y-100943229D01*
X73678576Y-101057906D01*
X73678566Y-101057913D01*
X73517574Y-101204676D01*
X73386288Y-101378527D01*
X73289183Y-101573539D01*
X73289180Y-101573545D01*
X73239266Y-101748980D01*
X73201987Y-101808073D01*
X73138678Y-101837631D01*
X73069438Y-101828269D01*
X73016252Y-101782960D01*
X73000734Y-101748980D01*
X72950819Y-101573545D01*
X72950816Y-101573539D01*
X72885024Y-101441411D01*
X72853712Y-101378528D01*
X72722427Y-101204678D01*
X72561432Y-101057912D01*
X72561428Y-101057909D01*
X72561423Y-101057906D01*
X72376213Y-100943229D01*
X72376207Y-100943226D01*
X72291113Y-100910260D01*
X72173069Y-100864530D01*
X71958926Y-100824500D01*
X71741074Y-100824500D01*
X71526931Y-100864530D01*
X71483896Y-100881202D01*
X71323792Y-100943226D01*
X71323786Y-100943229D01*
X71138576Y-101057906D01*
X71138566Y-101057913D01*
X70977574Y-101204676D01*
X70846288Y-101378527D01*
X70749183Y-101573539D01*
X70749180Y-101573545D01*
X70699266Y-101748980D01*
X70661987Y-101808073D01*
X70598678Y-101837631D01*
X70529438Y-101828269D01*
X70476252Y-101782960D01*
X70460734Y-101748980D01*
X70410819Y-101573545D01*
X70410816Y-101573539D01*
X70345024Y-101441411D01*
X70313712Y-101378528D01*
X70182427Y-101204678D01*
X70021432Y-101057912D01*
X70021428Y-101057909D01*
X70021423Y-101057906D01*
X69836213Y-100943229D01*
X69836207Y-100943226D01*
X69751113Y-100910260D01*
X69633069Y-100864530D01*
X69418926Y-100824500D01*
X69201074Y-100824500D01*
X68986931Y-100864530D01*
X68943896Y-100881202D01*
X68783792Y-100943226D01*
X68783786Y-100943229D01*
X68598576Y-101057906D01*
X68598566Y-101057913D01*
X68437574Y-101204676D01*
X68306288Y-101378527D01*
X68209183Y-101573539D01*
X68209180Y-101573545D01*
X68159006Y-101749893D01*
X68121727Y-101808986D01*
X68058418Y-101838544D01*
X67989178Y-101829182D01*
X67935991Y-101783873D01*
X67920474Y-101749893D01*
X67870350Y-101573727D01*
X67870344Y-101573712D01*
X67773284Y-101378791D01*
X67761011Y-101362539D01*
X67345184Y-101778367D01*
X67283861Y-101811852D01*
X67214169Y-101806868D01*
X67160555Y-101767998D01*
X67146116Y-101749892D01*
X67086668Y-101675345D01*
X67079535Y-101666400D01*
X67079533Y-101666399D01*
X67007275Y-101617134D01*
X66962973Y-101563106D01*
X66954915Y-101493702D01*
X66985657Y-101430959D01*
X66989446Y-101427000D01*
X67405167Y-101011279D01*
X67295983Y-100943676D01*
X67092930Y-100865013D01*
X66878878Y-100825000D01*
X66661122Y-100825000D01*
X66447070Y-100865013D01*
X66447069Y-100865013D01*
X66244016Y-100943676D01*
X66244010Y-100943679D01*
X66134832Y-101011278D01*
X66134831Y-101011279D01*
X66547942Y-101424389D01*
X66581427Y-101485712D01*
X66576443Y-101555403D01*
X66534572Y-101611337D01*
X66514073Y-101623785D01*
X66513646Y-101623990D01*
X66513645Y-101623990D01*
X66414202Y-101716260D01*
X66414199Y-101716264D01*
X66391967Y-101754771D01*
X66341400Y-101802987D01*
X66272793Y-101816209D01*
X66207928Y-101790241D01*
X66196899Y-101780452D01*
X65778987Y-101362539D01*
X65766716Y-101378789D01*
X65669655Y-101573712D01*
X65669650Y-101573725D01*
X65619525Y-101749894D01*
X65582245Y-101808987D01*
X65518935Y-101838544D01*
X65449696Y-101829182D01*
X65396510Y-101783872D01*
X65380994Y-101749898D01*
X65330817Y-101573541D01*
X65330815Y-101573537D01*
X65265024Y-101441411D01*
X65233712Y-101378528D01*
X65102427Y-101204678D01*
X64941432Y-101057912D01*
X64941428Y-101057909D01*
X64941423Y-101057906D01*
X64756213Y-100943229D01*
X64756207Y-100943226D01*
X64671112Y-100910260D01*
X64553069Y-100864530D01*
X64338926Y-100824500D01*
X64121074Y-100824500D01*
X63906931Y-100864530D01*
X63863896Y-100881202D01*
X63703792Y-100943226D01*
X63703786Y-100943229D01*
X63518576Y-101057906D01*
X63518566Y-101057913D01*
X63357574Y-101204676D01*
X63226288Y-101378527D01*
X63129183Y-101573539D01*
X63129180Y-101573545D01*
X63079266Y-101748980D01*
X63041987Y-101808073D01*
X62978678Y-101837631D01*
X62909438Y-101828269D01*
X62856252Y-101782960D01*
X62840734Y-101748980D01*
X62790819Y-101573545D01*
X62790816Y-101573539D01*
X62725024Y-101441411D01*
X62693712Y-101378528D01*
X62562427Y-101204678D01*
X62401432Y-101057912D01*
X62401428Y-101057909D01*
X62401423Y-101057906D01*
X62216213Y-100943229D01*
X62216207Y-100943226D01*
X62131113Y-100910260D01*
X62013069Y-100864530D01*
X61798926Y-100824500D01*
X61581074Y-100824500D01*
X61366931Y-100864530D01*
X61323896Y-100881202D01*
X61163792Y-100943226D01*
X61163786Y-100943229D01*
X60978576Y-101057906D01*
X60978566Y-101057913D01*
X60817574Y-101204676D01*
X60686288Y-101378527D01*
X60589183Y-101573539D01*
X60589180Y-101573545D01*
X60539266Y-101748980D01*
X60501987Y-101808073D01*
X60438678Y-101837631D01*
X60369438Y-101828269D01*
X60316252Y-101782960D01*
X60300734Y-101748980D01*
X60250819Y-101573545D01*
X60250816Y-101573539D01*
X60185024Y-101441411D01*
X60153712Y-101378528D01*
X60022427Y-101204678D01*
X59861432Y-101057912D01*
X59861428Y-101057909D01*
X59861423Y-101057906D01*
X59676213Y-100943229D01*
X59676207Y-100943226D01*
X59591112Y-100910260D01*
X59473069Y-100864530D01*
X59258926Y-100824500D01*
X59041074Y-100824500D01*
X58826931Y-100864530D01*
X58783896Y-100881202D01*
X58623792Y-100943226D01*
X58623786Y-100943229D01*
X58438576Y-101057906D01*
X58438566Y-101057913D01*
X58277574Y-101204676D01*
X58146288Y-101378527D01*
X58049183Y-101573539D01*
X58049180Y-101573545D01*
X57999266Y-101748980D01*
X57961987Y-101808073D01*
X57898678Y-101837631D01*
X57829438Y-101828269D01*
X57776252Y-101782960D01*
X57760734Y-101748980D01*
X57710819Y-101573545D01*
X57710816Y-101573539D01*
X57645024Y-101441411D01*
X57613712Y-101378528D01*
X57482427Y-101204678D01*
X57321432Y-101057912D01*
X57321428Y-101057909D01*
X57321423Y-101057906D01*
X57136213Y-100943229D01*
X57136207Y-100943226D01*
X57030670Y-100902341D01*
X56933069Y-100864530D01*
X56933063Y-100864529D01*
X56933057Y-100864527D01*
X56900873Y-100858511D01*
X56838592Y-100826843D01*
X56803320Y-100766530D01*
X56806254Y-100696722D01*
X56835976Y-100648944D01*
X63937076Y-93547844D01*
X89700000Y-93547844D01*
X89706401Y-93607372D01*
X89706403Y-93607379D01*
X89756645Y-93742086D01*
X89756649Y-93742093D01*
X89842809Y-93857187D01*
X89842812Y-93857190D01*
X89957906Y-93943350D01*
X89957913Y-93943354D01*
X90092620Y-93993596D01*
X90092627Y-93993598D01*
X90152155Y-93999999D01*
X90152172Y-94000000D01*
X90950000Y-94000000D01*
X90950000Y-93112301D01*
X90969685Y-93045262D01*
X91022489Y-92999507D01*
X91091647Y-92989563D01*
X91164237Y-93000000D01*
X91164238Y-93000000D01*
X91235762Y-93000000D01*
X91235763Y-93000000D01*
X91308353Y-92989563D01*
X91377512Y-92999507D01*
X91430315Y-93045262D01*
X91450000Y-93112301D01*
X91450000Y-94000000D01*
X92247828Y-94000000D01*
X92247844Y-93999999D01*
X92307372Y-93993598D01*
X92307379Y-93993596D01*
X92442086Y-93943354D01*
X92442093Y-93943350D01*
X92557187Y-93857190D01*
X92557190Y-93857187D01*
X92643350Y-93742093D01*
X92643354Y-93742086D01*
X92693596Y-93607379D01*
X92693598Y-93607372D01*
X92699999Y-93547844D01*
X92700000Y-93547827D01*
X92700000Y-92750000D01*
X91813347Y-92750000D01*
X91746308Y-92730315D01*
X91700553Y-92677511D01*
X91690609Y-92608353D01*
X91694369Y-92591067D01*
X91700000Y-92571888D01*
X91700000Y-92500005D01*
X97294357Y-92500005D01*
X97314890Y-92747812D01*
X97314892Y-92747824D01*
X97375936Y-92988881D01*
X97475826Y-93216606D01*
X97611833Y-93424782D01*
X97611836Y-93424785D01*
X97780256Y-93607738D01*
X97976491Y-93760474D01*
X98195190Y-93878828D01*
X98430386Y-93959571D01*
X98675665Y-94000500D01*
X98924335Y-94000500D01*
X99169614Y-93959571D01*
X99404810Y-93878828D01*
X99623509Y-93760474D01*
X99819744Y-93607738D01*
X99988164Y-93424785D01*
X100124173Y-93216607D01*
X100224063Y-92988881D01*
X100285108Y-92747821D01*
X100290934Y-92677511D01*
X100305643Y-92500005D01*
X100305643Y-92499994D01*
X100285109Y-92252187D01*
X100285107Y-92252175D01*
X100224063Y-92011118D01*
X100124173Y-91783393D01*
X99988166Y-91575217D01*
X99966557Y-91551744D01*
X99819744Y-91392262D01*
X99623509Y-91239526D01*
X99623507Y-91239525D01*
X99623506Y-91239524D01*
X99404811Y-91121172D01*
X99404802Y-91121169D01*
X99169616Y-91040429D01*
X98924335Y-90999500D01*
X98675665Y-90999500D01*
X98430383Y-91040429D01*
X98195197Y-91121169D01*
X98195188Y-91121172D01*
X97976493Y-91239524D01*
X97952876Y-91257906D01*
X97780256Y-91392262D01*
X97779920Y-91392627D01*
X97611833Y-91575217D01*
X97475826Y-91783393D01*
X97375936Y-92011118D01*
X97314892Y-92252175D01*
X97314890Y-92252187D01*
X97294357Y-92499994D01*
X97294357Y-92500005D01*
X91700000Y-92500005D01*
X91700000Y-92428111D01*
X91694369Y-92408933D01*
X91694370Y-92339064D01*
X91732145Y-92280286D01*
X91795701Y-92251262D01*
X91813347Y-92250000D01*
X92700000Y-92250000D01*
X92700000Y-91452172D01*
X92699999Y-91452155D01*
X92693598Y-91392627D01*
X92693596Y-91392620D01*
X92643354Y-91257913D01*
X92643350Y-91257906D01*
X92557190Y-91142812D01*
X92557187Y-91142809D01*
X92442093Y-91056649D01*
X92442086Y-91056645D01*
X92307379Y-91006403D01*
X92307372Y-91006401D01*
X92247844Y-91000000D01*
X91450000Y-91000000D01*
X91450000Y-91887698D01*
X91430315Y-91954737D01*
X91377511Y-92000492D01*
X91308355Y-92010436D01*
X91235766Y-92000000D01*
X91235763Y-92000000D01*
X91164237Y-92000000D01*
X91164233Y-92000000D01*
X91091645Y-92010436D01*
X91022487Y-92000492D01*
X90969684Y-91954736D01*
X90950000Y-91887698D01*
X90950000Y-91000000D01*
X90152155Y-91000000D01*
X90092627Y-91006401D01*
X90092620Y-91006403D01*
X89957913Y-91056645D01*
X89957906Y-91056649D01*
X89842812Y-91142809D01*
X89842809Y-91142812D01*
X89756649Y-91257906D01*
X89756645Y-91257913D01*
X89706403Y-91392620D01*
X89706401Y-91392627D01*
X89700000Y-91452155D01*
X89700000Y-92250000D01*
X90586653Y-92250000D01*
X90653692Y-92269685D01*
X90699447Y-92322489D01*
X90709391Y-92391647D01*
X90705631Y-92408933D01*
X90700000Y-92428111D01*
X90700000Y-92571888D01*
X90705631Y-92591067D01*
X90705630Y-92660936D01*
X90667855Y-92719714D01*
X90604299Y-92748738D01*
X90586653Y-92750000D01*
X89700000Y-92750000D01*
X89700000Y-93547844D01*
X63937076Y-93547844D01*
X67448101Y-90036819D01*
X67509425Y-90003334D01*
X67535783Y-90000500D01*
X70987284Y-90000500D01*
X71076358Y-90002757D01*
X71076358Y-90002756D01*
X71076363Y-90002757D01*
X71136753Y-89991932D01*
X71141412Y-89991280D01*
X71183607Y-89986988D01*
X71202438Y-89985074D01*
X71235227Y-89974786D01*
X71242840Y-89972918D01*
X71276653Y-89966858D01*
X71333621Y-89944101D01*
X71338053Y-89942524D01*
X71396588Y-89924159D01*
X71426627Y-89907484D01*
X71433708Y-89904122D01*
X71465617Y-89891377D01*
X71516854Y-89857608D01*
X71520851Y-89855187D01*
X71574502Y-89825409D01*
X71600568Y-89803030D01*
X71606843Y-89798300D01*
X71635519Y-89779402D01*
X71678917Y-89736002D01*
X71682336Y-89732834D01*
X71728895Y-89692866D01*
X71749931Y-89665688D01*
X71755101Y-89659818D01*
X73428487Y-87986433D01*
X73493053Y-87925059D01*
X73528119Y-87874675D01*
X73530912Y-87870972D01*
X73569697Y-87823408D01*
X73585604Y-87792952D01*
X73589666Y-87786248D01*
X73609295Y-87758049D01*
X73633497Y-87701650D01*
X73635500Y-87697431D01*
X73663909Y-87643049D01*
X73673357Y-87610022D01*
X73675988Y-87602633D01*
X73689540Y-87571058D01*
X73701895Y-87510930D01*
X73702999Y-87506429D01*
X73719886Y-87447418D01*
X73722494Y-87413157D01*
X73723585Y-87405389D01*
X73730500Y-87371743D01*
X73730500Y-87310398D01*
X73730679Y-87305688D01*
X73735337Y-87244524D01*
X73730997Y-87210442D01*
X73730500Y-87202603D01*
X73730500Y-86797389D01*
X73750185Y-86730350D01*
X73752911Y-86726284D01*
X73820579Y-86629646D01*
X73887618Y-86485878D01*
X73933790Y-86433439D01*
X74000983Y-86414287D01*
X74067864Y-86434502D01*
X74112381Y-86485878D01*
X74140072Y-86545262D01*
X74179419Y-86629642D01*
X74179423Y-86629650D01*
X74305322Y-86809452D01*
X74305327Y-86809458D01*
X74460541Y-86964672D01*
X74460547Y-86964677D01*
X74640349Y-87090576D01*
X74640351Y-87090577D01*
X74640354Y-87090579D01*
X74839297Y-87183347D01*
X75051326Y-87240161D01*
X75207521Y-87253826D01*
X75269998Y-87259292D01*
X75270000Y-87259292D01*
X75270002Y-87259292D01*
X75330501Y-87253999D01*
X75488674Y-87240161D01*
X75700703Y-87183347D01*
X75899646Y-87090579D01*
X76079457Y-86964674D01*
X76234674Y-86809457D01*
X76360579Y-86629646D01*
X76427618Y-86485878D01*
X76473790Y-86433439D01*
X76540983Y-86414287D01*
X76607864Y-86434502D01*
X76652381Y-86485878D01*
X76680072Y-86545262D01*
X76719419Y-86629642D01*
X76719423Y-86629650D01*
X76845322Y-86809452D01*
X76845327Y-86809458D01*
X77000541Y-86964672D01*
X77000547Y-86964677D01*
X77180349Y-87090576D01*
X77180351Y-87090577D01*
X77180354Y-87090579D01*
X77379297Y-87183347D01*
X77591326Y-87240161D01*
X77747521Y-87253826D01*
X77809998Y-87259292D01*
X77810000Y-87259292D01*
X77810002Y-87259292D01*
X77870501Y-87253999D01*
X78028674Y-87240161D01*
X78240703Y-87183347D01*
X78439646Y-87090579D01*
X78619457Y-86964674D01*
X78774674Y-86809457D01*
X78900579Y-86629646D01*
X78961034Y-86500000D01*
X82994390Y-86500000D01*
X83014804Y-86785433D01*
X83075628Y-87065037D01*
X83075630Y-87065043D01*
X83075631Y-87065046D01*
X83148081Y-87259292D01*
X83175635Y-87333166D01*
X83312770Y-87584309D01*
X83312775Y-87584317D01*
X83484254Y-87813387D01*
X83484270Y-87813405D01*
X83686594Y-88015729D01*
X83686612Y-88015745D01*
X83915682Y-88187224D01*
X83915690Y-88187229D01*
X84166833Y-88324364D01*
X84166832Y-88324364D01*
X84166836Y-88324365D01*
X84166839Y-88324367D01*
X84434954Y-88424369D01*
X84434960Y-88424370D01*
X84434962Y-88424371D01*
X84714566Y-88485195D01*
X84714568Y-88485195D01*
X84714572Y-88485196D01*
X84968220Y-88503337D01*
X84999999Y-88505610D01*
X85000000Y-88505610D01*
X85000001Y-88505610D01*
X85028595Y-88503564D01*
X85285428Y-88485196D01*
X85565046Y-88424369D01*
X85833161Y-88324367D01*
X86084315Y-88187226D01*
X86313395Y-88015739D01*
X86515739Y-87813395D01*
X86687226Y-87584315D01*
X86824367Y-87333161D01*
X86924369Y-87065046D01*
X86968674Y-86861379D01*
X86985195Y-86785433D01*
X86985195Y-86785432D01*
X86985196Y-86785428D01*
X87005610Y-86500000D01*
X86985196Y-86214572D01*
X86984167Y-86209844D01*
X86924371Y-85934962D01*
X86924370Y-85934960D01*
X86924369Y-85934954D01*
X86824367Y-85666839D01*
X86769610Y-85566560D01*
X86687229Y-85415690D01*
X86687224Y-85415682D01*
X86515745Y-85186612D01*
X86515729Y-85186594D01*
X86313405Y-84984270D01*
X86313387Y-84984254D01*
X86084317Y-84812775D01*
X86084309Y-84812770D01*
X85833166Y-84675635D01*
X85833167Y-84675635D01*
X85725915Y-84635632D01*
X85565046Y-84575631D01*
X85565043Y-84575630D01*
X85565037Y-84575628D01*
X85285433Y-84514804D01*
X85000001Y-84494390D01*
X84999999Y-84494390D01*
X84714566Y-84514804D01*
X84434962Y-84575628D01*
X84166833Y-84675635D01*
X83915690Y-84812770D01*
X83915682Y-84812775D01*
X83686612Y-84984254D01*
X83686594Y-84984270D01*
X83484270Y-85186594D01*
X83484254Y-85186612D01*
X83312775Y-85415682D01*
X83312770Y-85415690D01*
X83175635Y-85666833D01*
X83075628Y-85934962D01*
X83014804Y-86214566D01*
X82994390Y-86499998D01*
X82994390Y-86500000D01*
X78961034Y-86500000D01*
X78993347Y-86430703D01*
X79050161Y-86218674D01*
X79069292Y-86000000D01*
X79050161Y-85781326D01*
X78993347Y-85569297D01*
X78900579Y-85370354D01*
X78900577Y-85370351D01*
X78900576Y-85370349D01*
X78774677Y-85190547D01*
X78774672Y-85190541D01*
X78619458Y-85035327D01*
X78619452Y-85035322D01*
X78439650Y-84909423D01*
X78439642Y-84909419D01*
X78240708Y-84816655D01*
X78240706Y-84816654D01*
X78240703Y-84816653D01*
X78089885Y-84776240D01*
X78028675Y-84759839D01*
X78028668Y-84759838D01*
X77810002Y-84740708D01*
X77809998Y-84740708D01*
X77591331Y-84759838D01*
X77591324Y-84759839D01*
X77468902Y-84792642D01*
X77379297Y-84816653D01*
X77379295Y-84816653D01*
X77379291Y-84816655D01*
X77180357Y-84909419D01*
X77180349Y-84909423D01*
X77000547Y-85035322D01*
X77000541Y-85035327D01*
X76845327Y-85190541D01*
X76845322Y-85190547D01*
X76719423Y-85370349D01*
X76719419Y-85370357D01*
X76652382Y-85514120D01*
X76606210Y-85566560D01*
X76539017Y-85585712D01*
X76472135Y-85565496D01*
X76427618Y-85514120D01*
X76381717Y-85415685D01*
X76360579Y-85370354D01*
X76360577Y-85370351D01*
X76360576Y-85370349D01*
X76234677Y-85190547D01*
X76234672Y-85190541D01*
X76079458Y-85035327D01*
X76079452Y-85035322D01*
X75899650Y-84909423D01*
X75899642Y-84909419D01*
X75700708Y-84816655D01*
X75700706Y-84816654D01*
X75700703Y-84816653D01*
X75549885Y-84776240D01*
X75488675Y-84759839D01*
X75488668Y-84759838D01*
X75270002Y-84740708D01*
X75269998Y-84740708D01*
X75051331Y-84759838D01*
X75051324Y-84759839D01*
X74928902Y-84792642D01*
X74839297Y-84816653D01*
X74839295Y-84816653D01*
X74839291Y-84816655D01*
X74640357Y-84909419D01*
X74640349Y-84909423D01*
X74460547Y-85035322D01*
X74460541Y-85035327D01*
X74305327Y-85190541D01*
X74305322Y-85190547D01*
X74179423Y-85370349D01*
X74179419Y-85370357D01*
X74112382Y-85514120D01*
X74066210Y-85566560D01*
X73999017Y-85585712D01*
X73932135Y-85565496D01*
X73887618Y-85514120D01*
X73841717Y-85415685D01*
X73820579Y-85370354D01*
X73820577Y-85370351D01*
X73820576Y-85370349D01*
X73694677Y-85190547D01*
X73694672Y-85190541D01*
X73539458Y-85035327D01*
X73539452Y-85035322D01*
X73359650Y-84909423D01*
X73359642Y-84909419D01*
X73160708Y-84816655D01*
X73160706Y-84816654D01*
X73160703Y-84816653D01*
X73009885Y-84776240D01*
X72948675Y-84759839D01*
X72948668Y-84759838D01*
X72730002Y-84740708D01*
X72729998Y-84740708D01*
X72511331Y-84759838D01*
X72511324Y-84759839D01*
X72388902Y-84792642D01*
X72299297Y-84816653D01*
X72299295Y-84816653D01*
X72299291Y-84816655D01*
X72100357Y-84909419D01*
X72100349Y-84909423D01*
X71920547Y-85035322D01*
X71920541Y-85035327D01*
X71765327Y-85190541D01*
X71765322Y-85190548D01*
X71669575Y-85327289D01*
X71614998Y-85370914D01*
X71545500Y-85378107D01*
X71483145Y-85346585D01*
X71447731Y-85286355D01*
X71444000Y-85256166D01*
X71444000Y-85198172D01*
X71443999Y-85198155D01*
X71437598Y-85138627D01*
X71437596Y-85138620D01*
X71387354Y-85003913D01*
X71387350Y-85003906D01*
X71301190Y-84888812D01*
X71301187Y-84888809D01*
X71186093Y-84802649D01*
X71186086Y-84802645D01*
X71051379Y-84752403D01*
X71051372Y-84752401D01*
X70991844Y-84746000D01*
X70440000Y-84746000D01*
X70440000Y-85387698D01*
X70420315Y-85454737D01*
X70367511Y-85500492D01*
X70298355Y-85510436D01*
X70225766Y-85500000D01*
X70225763Y-85500000D01*
X70154237Y-85500000D01*
X70154233Y-85500000D01*
X70081645Y-85510436D01*
X70012487Y-85500492D01*
X69959684Y-85454736D01*
X69940000Y-85387698D01*
X69940000Y-84746000D01*
X69388155Y-84746000D01*
X69328627Y-84752401D01*
X69328620Y-84752403D01*
X69193913Y-84802645D01*
X69193906Y-84802649D01*
X69078812Y-84888809D01*
X69078809Y-84888812D01*
X68992649Y-85003906D01*
X68992645Y-85003913D01*
X68942403Y-85138620D01*
X68942401Y-85138627D01*
X68936000Y-85198155D01*
X68936000Y-85750000D01*
X69576653Y-85750000D01*
X69643692Y-85769685D01*
X69689447Y-85822489D01*
X69699391Y-85891647D01*
X69695631Y-85908933D01*
X69690000Y-85928111D01*
X69690000Y-86071888D01*
X69695631Y-86091067D01*
X69695630Y-86160936D01*
X69657855Y-86219714D01*
X69594299Y-86248738D01*
X69576653Y-86250000D01*
X68936000Y-86250000D01*
X68936000Y-86801844D01*
X68942401Y-86861372D01*
X68942403Y-86861379D01*
X68992645Y-86996086D01*
X68992649Y-86996093D01*
X69078809Y-87111187D01*
X69078812Y-87111190D01*
X69193906Y-87197350D01*
X69193913Y-87197354D01*
X69328620Y-87247596D01*
X69328627Y-87247598D01*
X69388155Y-87253999D01*
X69388172Y-87254000D01*
X69940000Y-87254000D01*
X69940000Y-86612301D01*
X69959685Y-86545262D01*
X70012489Y-86499507D01*
X70081647Y-86489563D01*
X70154237Y-86500000D01*
X70154238Y-86500000D01*
X70225762Y-86500000D01*
X70225763Y-86500000D01*
X70298353Y-86489563D01*
X70367512Y-86499507D01*
X70420315Y-86545262D01*
X70440000Y-86612301D01*
X70440000Y-87254000D01*
X70991828Y-87254000D01*
X70991836Y-87253999D01*
X71022462Y-87250706D01*
X71091222Y-87263109D01*
X71142361Y-87310718D01*
X71159642Y-87378417D01*
X71137579Y-87444712D01*
X71123402Y-87461676D01*
X70621899Y-87963181D01*
X70560576Y-87996666D01*
X70534218Y-87999500D01*
X67082676Y-87999500D01*
X67038155Y-87998372D01*
X66993636Y-87997244D01*
X66993635Y-87997244D01*
X66993626Y-87997244D01*
X66933263Y-88008064D01*
X66928597Y-88008718D01*
X66867564Y-88014925D01*
X66834780Y-88025210D01*
X66827153Y-88027082D01*
X66793349Y-88033141D01*
X66736381Y-88055895D01*
X66731945Y-88057474D01*
X66673414Y-88075840D01*
X66673410Y-88075842D01*
X66643378Y-88092510D01*
X66636284Y-88095879D01*
X66604382Y-88108623D01*
X66604377Y-88108625D01*
X66553156Y-88142381D01*
X66549128Y-88144822D01*
X66495501Y-88174588D01*
X66469434Y-88196965D01*
X66463165Y-88201692D01*
X66434484Y-88220595D01*
X66434478Y-88220600D01*
X66391109Y-88263968D01*
X66387655Y-88267169D01*
X66341102Y-88307136D01*
X66320076Y-88334298D01*
X66314885Y-88340192D01*
X53866897Y-100788181D01*
X53805574Y-100821666D01*
X53779216Y-100824500D01*
X53347129Y-100824500D01*
X53347123Y-100824501D01*
X53287516Y-100830908D01*
X53152671Y-100881202D01*
X53152664Y-100881206D01*
X53037455Y-100967452D01*
X53037452Y-100967455D01*
X52951206Y-101082664D01*
X52951202Y-101082671D01*
X52900908Y-101217517D01*
X52894501Y-101277116D01*
X52894500Y-101277135D01*
X52894500Y-102722870D01*
X51564097Y-102722870D01*
X51603244Y-102705175D01*
X51603245Y-102705173D01*
X51603250Y-102705172D01*
X51744630Y-102609615D01*
X51797231Y-102574064D01*
X51797232Y-102574062D01*
X51797241Y-102574057D01*
X51966283Y-102412044D01*
X52105513Y-102223792D01*
X52210926Y-102014718D01*
X52279489Y-101790837D01*
X52309229Y-101558589D01*
X52299292Y-101324655D01*
X52249962Y-101095766D01*
X52234751Y-101057913D01*
X52188667Y-100943228D01*
X52162660Y-100878506D01*
X52050731Y-100696722D01*
X52039896Y-100679124D01*
X51885206Y-100503362D01*
X51885205Y-100503361D01*
X51885203Y-100503359D01*
X51703030Y-100356265D01*
X51703030Y-100356264D01*
X51498622Y-100242075D01*
X51277852Y-100164072D01*
X51277851Y-100164071D01*
X51277849Y-100164071D01*
X51277845Y-100164070D01*
X51277844Y-100164070D01*
X51047080Y-100124500D01*
X51047072Y-100124500D01*
X50871572Y-100124500D01*
X50871567Y-100124500D01*
X50696703Y-100139382D01*
X50470110Y-100198382D01*
X50256755Y-100294824D01*
X50256747Y-100294829D01*
X50062768Y-100425935D01*
X50062759Y-100425943D01*
X49893721Y-100587951D01*
X49754485Y-100776210D01*
X49649074Y-100985280D01*
X49580510Y-101209166D01*
X49550771Y-101441411D01*
X49000500Y-101441411D01*
X49000500Y-86500000D01*
X60994390Y-86500000D01*
X61014804Y-86785433D01*
X61075628Y-87065037D01*
X61075630Y-87065043D01*
X61075631Y-87065046D01*
X61148081Y-87259292D01*
X61175635Y-87333166D01*
X61312770Y-87584309D01*
X61312775Y-87584317D01*
X61484254Y-87813387D01*
X61484270Y-87813405D01*
X61686594Y-88015729D01*
X61686612Y-88015745D01*
X61915682Y-88187224D01*
X61915690Y-88187229D01*
X62166833Y-88324364D01*
X62166832Y-88324364D01*
X62166836Y-88324365D01*
X62166839Y-88324367D01*
X62434954Y-88424369D01*
X62434960Y-88424370D01*
X62434962Y-88424371D01*
X62714566Y-88485195D01*
X62714568Y-88485195D01*
X62714572Y-88485196D01*
X62968220Y-88503337D01*
X62999999Y-88505610D01*
X63000000Y-88505610D01*
X63000001Y-88505610D01*
X63028595Y-88503564D01*
X63285428Y-88485196D01*
X63565046Y-88424369D01*
X63833161Y-88324367D01*
X64084315Y-88187226D01*
X64313395Y-88015739D01*
X64515739Y-87813395D01*
X64687226Y-87584315D01*
X64824367Y-87333161D01*
X64924369Y-87065046D01*
X64968674Y-86861379D01*
X64985195Y-86785433D01*
X64985195Y-86785432D01*
X64985196Y-86785428D01*
X65005610Y-86500000D01*
X64985196Y-86214572D01*
X64984167Y-86209844D01*
X64924371Y-85934962D01*
X64924370Y-85934960D01*
X64924369Y-85934954D01*
X64824367Y-85666839D01*
X64769610Y-85566560D01*
X64687229Y-85415690D01*
X64687224Y-85415682D01*
X64515745Y-85186612D01*
X64515729Y-85186594D01*
X64313405Y-84984270D01*
X64313387Y-84984254D01*
X64084317Y-84812775D01*
X64084309Y-84812770D01*
X63833166Y-84675635D01*
X63833167Y-84675635D01*
X63725915Y-84635632D01*
X63565046Y-84575631D01*
X63565043Y-84575630D01*
X63565037Y-84575628D01*
X63285433Y-84514804D01*
X63000001Y-84494390D01*
X62999999Y-84494390D01*
X62714566Y-84514804D01*
X62434962Y-84575628D01*
X62166833Y-84675635D01*
X61915690Y-84812770D01*
X61915682Y-84812775D01*
X61686612Y-84984254D01*
X61686594Y-84984270D01*
X61484270Y-85186594D01*
X61484254Y-85186612D01*
X61312775Y-85415682D01*
X61312770Y-85415690D01*
X61175635Y-85666833D01*
X61075628Y-85934962D01*
X61014804Y-86214566D01*
X60994390Y-86499998D01*
X60994390Y-86500000D01*
X49000500Y-86500000D01*
X49000500Y-82567763D01*
X50645787Y-82567763D01*
X50675413Y-82837013D01*
X50675415Y-82837024D01*
X50743926Y-83099082D01*
X50743928Y-83099088D01*
X50849870Y-83348390D01*
X50921998Y-83466575D01*
X50990979Y-83579605D01*
X50990986Y-83579615D01*
X51164253Y-83787819D01*
X51164259Y-83787824D01*
X51365998Y-83968582D01*
X51591910Y-84118044D01*
X51837176Y-84233020D01*
X51837183Y-84233022D01*
X51837185Y-84233023D01*
X52096557Y-84311057D01*
X52096564Y-84311058D01*
X52096569Y-84311060D01*
X52364561Y-84350500D01*
X52364566Y-84350500D01*
X52567636Y-84350500D01*
X52619133Y-84346730D01*
X52770156Y-84335677D01*
X52882758Y-84310593D01*
X53034546Y-84276782D01*
X53034548Y-84276781D01*
X53034553Y-84276780D01*
X53287558Y-84180014D01*
X53523777Y-84047441D01*
X53738177Y-83881888D01*
X53926186Y-83686881D01*
X54083799Y-83466579D01*
X54157787Y-83322669D01*
X54207649Y-83225690D01*
X54207651Y-83225684D01*
X54207656Y-83225675D01*
X54295118Y-82969305D01*
X54344319Y-82702933D01*
X54349259Y-82567763D01*
X98145787Y-82567763D01*
X98175413Y-82837013D01*
X98175415Y-82837024D01*
X98243926Y-83099082D01*
X98243928Y-83099088D01*
X98349870Y-83348390D01*
X98421998Y-83466575D01*
X98490979Y-83579605D01*
X98490986Y-83579615D01*
X98664253Y-83787819D01*
X98664259Y-83787824D01*
X98865998Y-83968582D01*
X99091910Y-84118044D01*
X99337176Y-84233020D01*
X99337183Y-84233022D01*
X99337185Y-84233023D01*
X99596557Y-84311057D01*
X99596564Y-84311058D01*
X99596569Y-84311060D01*
X99864561Y-84350500D01*
X99864566Y-84350500D01*
X100067636Y-84350500D01*
X100119133Y-84346730D01*
X100270156Y-84335677D01*
X100382758Y-84310593D01*
X100534546Y-84276782D01*
X100534548Y-84276781D01*
X100534553Y-84276780D01*
X100787558Y-84180014D01*
X101023777Y-84047441D01*
X101238177Y-83881888D01*
X101426186Y-83686881D01*
X101583799Y-83466579D01*
X101657787Y-83322669D01*
X101707649Y-83225690D01*
X101707651Y-83225684D01*
X101707656Y-83225675D01*
X101795118Y-82969305D01*
X101844319Y-82702933D01*
X101854212Y-82432235D01*
X101824586Y-82162982D01*
X101756072Y-81900912D01*
X101650130Y-81651610D01*
X101509018Y-81420390D01*
X101419747Y-81313119D01*
X101335746Y-81212180D01*
X101335740Y-81212175D01*
X101134002Y-81031418D01*
X100908092Y-80881957D01*
X100908090Y-80881956D01*
X100662824Y-80766980D01*
X100662819Y-80766978D01*
X100662814Y-80766976D01*
X100403442Y-80688942D01*
X100403428Y-80688939D01*
X100287791Y-80671921D01*
X100135439Y-80649500D01*
X99932369Y-80649500D01*
X99932364Y-80649500D01*
X99729844Y-80664323D01*
X99729831Y-80664325D01*
X99465453Y-80723217D01*
X99465446Y-80723220D01*
X99212439Y-80819987D01*
X98976226Y-80952557D01*
X98761822Y-81118112D01*
X98573822Y-81313109D01*
X98573816Y-81313116D01*
X98416202Y-81533419D01*
X98416199Y-81533424D01*
X98292350Y-81774309D01*
X98292343Y-81774327D01*
X98204884Y-82030685D01*
X98204881Y-82030699D01*
X98189588Y-82113494D01*
X98161104Y-82267710D01*
X98155681Y-82297068D01*
X98155680Y-82297075D01*
X98145787Y-82567763D01*
X54349259Y-82567763D01*
X54354212Y-82432235D01*
X54324586Y-82162982D01*
X54256072Y-81900912D01*
X54150130Y-81651610D01*
X54009018Y-81420390D01*
X53919747Y-81313119D01*
X53835746Y-81212180D01*
X53835740Y-81212175D01*
X53748453Y-81133966D01*
X58649500Y-81133966D01*
X58664936Y-81310403D01*
X58664938Y-81310413D01*
X58726094Y-81538655D01*
X58726096Y-81538659D01*
X58726097Y-81538663D01*
X58750000Y-81589922D01*
X58825964Y-81752828D01*
X58825965Y-81752830D01*
X58961505Y-81946402D01*
X59045789Y-82030685D01*
X59128599Y-82113495D01*
X59225384Y-82181264D01*
X59322165Y-82249032D01*
X59322167Y-82249033D01*
X59322170Y-82249035D01*
X59536337Y-82348903D01*
X59764592Y-82410063D01*
X59941034Y-82425500D01*
X59999999Y-82430659D01*
X60000000Y-82430659D01*
X60000001Y-82430659D01*
X60058966Y-82425500D01*
X60235408Y-82410063D01*
X60463663Y-82348903D01*
X60677829Y-82249035D01*
X60871401Y-82113495D01*
X61038495Y-81946401D01*
X61148426Y-81789401D01*
X61203001Y-81745778D01*
X61272500Y-81738584D01*
X61334855Y-81770106D01*
X61351571Y-81789398D01*
X61378457Y-81827795D01*
X61461506Y-81946403D01*
X61545789Y-82030685D01*
X61628599Y-82113495D01*
X61725384Y-82181264D01*
X61822165Y-82249032D01*
X61822167Y-82249033D01*
X61822170Y-82249035D01*
X62036337Y-82348903D01*
X62264592Y-82410063D01*
X62441034Y-82425500D01*
X62499999Y-82430659D01*
X62500000Y-82430659D01*
X62500001Y-82430659D01*
X62558966Y-82425500D01*
X62735408Y-82410063D01*
X62963663Y-82348903D01*
X63177829Y-82249035D01*
X63371401Y-82113495D01*
X63538495Y-81946401D01*
X63648426Y-81789401D01*
X63703001Y-81745778D01*
X63772500Y-81738584D01*
X63834855Y-81770106D01*
X63851571Y-81789398D01*
X63878457Y-81827795D01*
X63961506Y-81946403D01*
X64045789Y-82030685D01*
X64128599Y-82113495D01*
X64225384Y-82181264D01*
X64322165Y-82249032D01*
X64322167Y-82249033D01*
X64322170Y-82249035D01*
X64536337Y-82348903D01*
X64764592Y-82410063D01*
X64941034Y-82425500D01*
X64999999Y-82430659D01*
X65000000Y-82430659D01*
X65000001Y-82430659D01*
X65058966Y-82425500D01*
X65235408Y-82410063D01*
X65463663Y-82348903D01*
X65677829Y-82249035D01*
X65871401Y-82113495D01*
X66038495Y-81946401D01*
X66148427Y-81789400D01*
X66203000Y-81745778D01*
X66272498Y-81738584D01*
X66334853Y-81770106D01*
X66351574Y-81789403D01*
X66461505Y-81946402D01*
X66545789Y-82030685D01*
X66628599Y-82113495D01*
X66725384Y-82181264D01*
X66822165Y-82249032D01*
X66822167Y-82249033D01*
X66822170Y-82249035D01*
X67036337Y-82348903D01*
X67264592Y-82410063D01*
X67441034Y-82425500D01*
X67499999Y-82430659D01*
X67500000Y-82430659D01*
X67500001Y-82430659D01*
X67558966Y-82425500D01*
X67735408Y-82410063D01*
X67963663Y-82348903D01*
X68177829Y-82249035D01*
X68371401Y-82113495D01*
X68538495Y-81946401D01*
X68648426Y-81789401D01*
X68703001Y-81745778D01*
X68772500Y-81738584D01*
X68834855Y-81770106D01*
X68851571Y-81789398D01*
X68878457Y-81827795D01*
X68961506Y-81946403D01*
X69045789Y-82030685D01*
X69128599Y-82113495D01*
X69225384Y-82181264D01*
X69322165Y-82249032D01*
X69322167Y-82249033D01*
X69322170Y-82249035D01*
X69536337Y-82348903D01*
X69764592Y-82410063D01*
X69941034Y-82425500D01*
X69999999Y-82430659D01*
X70000000Y-82430659D01*
X70000001Y-82430659D01*
X70058966Y-82425500D01*
X70235408Y-82410063D01*
X70463663Y-82348903D01*
X70677829Y-82249035D01*
X70871401Y-82113495D01*
X71018602Y-81966293D01*
X71079924Y-81932810D01*
X71149615Y-81937794D01*
X71205549Y-81979665D01*
X71211821Y-81988879D01*
X71237616Y-82030699D01*
X71307288Y-82143656D01*
X71431344Y-82267712D01*
X71580666Y-82359814D01*
X71747203Y-82414999D01*
X71849991Y-82425500D01*
X73150008Y-82425499D01*
X73252797Y-82414999D01*
X73419334Y-82359814D01*
X73568656Y-82267712D01*
X73692712Y-82143656D01*
X73784814Y-81994334D01*
X73839999Y-81827797D01*
X73850500Y-81725009D01*
X73850500Y-81133966D01*
X78649500Y-81133966D01*
X78664936Y-81310403D01*
X78664938Y-81310413D01*
X78726094Y-81538655D01*
X78726096Y-81538659D01*
X78726097Y-81538663D01*
X78750000Y-81589922D01*
X78825964Y-81752828D01*
X78825965Y-81752830D01*
X78961505Y-81946402D01*
X79045789Y-82030685D01*
X79128599Y-82113495D01*
X79225384Y-82181264D01*
X79322165Y-82249032D01*
X79322167Y-82249033D01*
X79322170Y-82249035D01*
X79536337Y-82348903D01*
X79764592Y-82410063D01*
X79941034Y-82425500D01*
X79999999Y-82430659D01*
X80000000Y-82430659D01*
X80000001Y-82430659D01*
X80058966Y-82425500D01*
X80235408Y-82410063D01*
X80463663Y-82348903D01*
X80677829Y-82249035D01*
X80871401Y-82113495D01*
X81038495Y-81946401D01*
X81148426Y-81789401D01*
X81203001Y-81745778D01*
X81272500Y-81738584D01*
X81334855Y-81770106D01*
X81351571Y-81789398D01*
X81378457Y-81827795D01*
X81461506Y-81946403D01*
X81545789Y-82030685D01*
X81628599Y-82113495D01*
X81725384Y-82181264D01*
X81822165Y-82249032D01*
X81822167Y-82249033D01*
X81822170Y-82249035D01*
X82036337Y-82348903D01*
X82264592Y-82410063D01*
X82441034Y-82425500D01*
X82499999Y-82430659D01*
X82500000Y-82430659D01*
X82500001Y-82430659D01*
X82558966Y-82425500D01*
X82735408Y-82410063D01*
X82963663Y-82348903D01*
X83177829Y-82249035D01*
X83371401Y-82113495D01*
X83538495Y-81946401D01*
X83648426Y-81789401D01*
X83703001Y-81745778D01*
X83772500Y-81738584D01*
X83834855Y-81770106D01*
X83851571Y-81789398D01*
X83878457Y-81827795D01*
X83961506Y-81946403D01*
X84045789Y-82030685D01*
X84128599Y-82113495D01*
X84225384Y-82181264D01*
X84322165Y-82249032D01*
X84322167Y-82249033D01*
X84322170Y-82249035D01*
X84536337Y-82348903D01*
X84764592Y-82410063D01*
X84941034Y-82425500D01*
X84999999Y-82430659D01*
X85000000Y-82430659D01*
X85000001Y-82430659D01*
X85058966Y-82425500D01*
X85235408Y-82410063D01*
X85463663Y-82348903D01*
X85677829Y-82249035D01*
X85871401Y-82113495D01*
X86038495Y-81946401D01*
X86148426Y-81789401D01*
X86203001Y-81745778D01*
X86272500Y-81738584D01*
X86334855Y-81770106D01*
X86351571Y-81789398D01*
X86378457Y-81827795D01*
X86461506Y-81946403D01*
X86545789Y-82030685D01*
X86628599Y-82113495D01*
X86725384Y-82181264D01*
X86822165Y-82249032D01*
X86822167Y-82249033D01*
X86822170Y-82249035D01*
X87036337Y-82348903D01*
X87264592Y-82410063D01*
X87441034Y-82425500D01*
X87499999Y-82430659D01*
X87500000Y-82430659D01*
X87500001Y-82430659D01*
X87558966Y-82425500D01*
X87735408Y-82410063D01*
X87963663Y-82348903D01*
X88177829Y-82249035D01*
X88371401Y-82113495D01*
X88538495Y-81946401D01*
X88648426Y-81789401D01*
X88703001Y-81745778D01*
X88772500Y-81738584D01*
X88834855Y-81770106D01*
X88851571Y-81789398D01*
X88878457Y-81827795D01*
X88961506Y-81946403D01*
X89045789Y-82030685D01*
X89128599Y-82113495D01*
X89225384Y-82181264D01*
X89322165Y-82249032D01*
X89322167Y-82249033D01*
X89322170Y-82249035D01*
X89536337Y-82348903D01*
X89764592Y-82410063D01*
X89941034Y-82425500D01*
X89999999Y-82430659D01*
X90000000Y-82430659D01*
X90000001Y-82430659D01*
X90058966Y-82425500D01*
X90235408Y-82410063D01*
X90463663Y-82348903D01*
X90677829Y-82249035D01*
X90871401Y-82113495D01*
X91018602Y-81966293D01*
X91079924Y-81932810D01*
X91149615Y-81937794D01*
X91205549Y-81979665D01*
X91211821Y-81988879D01*
X91237616Y-82030699D01*
X91307288Y-82143656D01*
X91431344Y-82267712D01*
X91580666Y-82359814D01*
X91747203Y-82414999D01*
X91849991Y-82425500D01*
X93150008Y-82425499D01*
X93252797Y-82414999D01*
X93419334Y-82359814D01*
X93568656Y-82267712D01*
X93692712Y-82143656D01*
X93784814Y-81994334D01*
X93839999Y-81827797D01*
X93850500Y-81725009D01*
X93850499Y-80174992D01*
X93839999Y-80072203D01*
X93784814Y-79905666D01*
X93692712Y-79756344D01*
X93568656Y-79632288D01*
X93475888Y-79575069D01*
X93419336Y-79540187D01*
X93419331Y-79540185D01*
X93417862Y-79539698D01*
X93252797Y-79485001D01*
X93252795Y-79485000D01*
X93150010Y-79474500D01*
X91849998Y-79474500D01*
X91849981Y-79474501D01*
X91747203Y-79485000D01*
X91747200Y-79485001D01*
X91580668Y-79540185D01*
X91580663Y-79540187D01*
X91431342Y-79632289D01*
X91307289Y-79756342D01*
X91211821Y-79911121D01*
X91159873Y-79957845D01*
X91090910Y-79969068D01*
X91026828Y-79941224D01*
X91018601Y-79933705D01*
X90871402Y-79786506D01*
X90871395Y-79786501D01*
X90677834Y-79650967D01*
X90677830Y-79650965D01*
X90637777Y-79632288D01*
X90463663Y-79551097D01*
X90463659Y-79551096D01*
X90463655Y-79551094D01*
X90235413Y-79489938D01*
X90235403Y-79489936D01*
X90000001Y-79469341D01*
X89999999Y-79469341D01*
X89764596Y-79489936D01*
X89764586Y-79489938D01*
X89536344Y-79551094D01*
X89536335Y-79551098D01*
X89322171Y-79650964D01*
X89322169Y-79650965D01*
X89128597Y-79786505D01*
X88961505Y-79953597D01*
X88851575Y-80110595D01*
X88796998Y-80154220D01*
X88727500Y-80161414D01*
X88665145Y-80129891D01*
X88648425Y-80110595D01*
X88538494Y-79953597D01*
X88371402Y-79786506D01*
X88371395Y-79786501D01*
X88177834Y-79650967D01*
X88177830Y-79650965D01*
X88137777Y-79632288D01*
X87963663Y-79551097D01*
X87963659Y-79551096D01*
X87963655Y-79551094D01*
X87735413Y-79489938D01*
X87735403Y-79489936D01*
X87500001Y-79469341D01*
X87499999Y-79469341D01*
X87264596Y-79489936D01*
X87264586Y-79489938D01*
X87036344Y-79551094D01*
X87036335Y-79551098D01*
X86822171Y-79650964D01*
X86822169Y-79650965D01*
X86628597Y-79786505D01*
X86461505Y-79953597D01*
X86351575Y-80110595D01*
X86296998Y-80154220D01*
X86227500Y-80161414D01*
X86165145Y-80129891D01*
X86148425Y-80110595D01*
X86038494Y-79953597D01*
X85871402Y-79786506D01*
X85871395Y-79786501D01*
X85677834Y-79650967D01*
X85677830Y-79650965D01*
X85637777Y-79632288D01*
X85463663Y-79551097D01*
X85463659Y-79551096D01*
X85463655Y-79551094D01*
X85235413Y-79489938D01*
X85235403Y-79489936D01*
X85000001Y-79469341D01*
X84999999Y-79469341D01*
X84764596Y-79489936D01*
X84764586Y-79489938D01*
X84536344Y-79551094D01*
X84536335Y-79551098D01*
X84322171Y-79650964D01*
X84322169Y-79650965D01*
X84128597Y-79786505D01*
X83961505Y-79953597D01*
X83851575Y-80110595D01*
X83796998Y-80154220D01*
X83727500Y-80161414D01*
X83665145Y-80129891D01*
X83648425Y-80110595D01*
X83538494Y-79953597D01*
X83371402Y-79786506D01*
X83371395Y-79786501D01*
X83177834Y-79650967D01*
X83177830Y-79650965D01*
X83137777Y-79632288D01*
X82963663Y-79551097D01*
X82963659Y-79551096D01*
X82963655Y-79551094D01*
X82735413Y-79489938D01*
X82735403Y-79489936D01*
X82500001Y-79469341D01*
X82499999Y-79469341D01*
X82264596Y-79489936D01*
X82264586Y-79489938D01*
X82036344Y-79551094D01*
X82036335Y-79551098D01*
X81822171Y-79650964D01*
X81822169Y-79650965D01*
X81628597Y-79786505D01*
X81461505Y-79953597D01*
X81351575Y-80110595D01*
X81296998Y-80154220D01*
X81227500Y-80161414D01*
X81165145Y-80129891D01*
X81148425Y-80110595D01*
X81038494Y-79953597D01*
X80871402Y-79786506D01*
X80871395Y-79786501D01*
X80677834Y-79650967D01*
X80677830Y-79650965D01*
X80637777Y-79632288D01*
X80463663Y-79551097D01*
X80463659Y-79551096D01*
X80463655Y-79551094D01*
X80235413Y-79489938D01*
X80235403Y-79489936D01*
X80000001Y-79469341D01*
X79999999Y-79469341D01*
X79764596Y-79489936D01*
X79764586Y-79489938D01*
X79536344Y-79551094D01*
X79536335Y-79551098D01*
X79322171Y-79650964D01*
X79322169Y-79650965D01*
X79128597Y-79786505D01*
X78961505Y-79953597D01*
X78825965Y-80147169D01*
X78825964Y-80147171D01*
X78726098Y-80361335D01*
X78726094Y-80361344D01*
X78664938Y-80589586D01*
X78664936Y-80589596D01*
X78649500Y-80766034D01*
X78649500Y-81133966D01*
X73850500Y-81133966D01*
X73850499Y-80174992D01*
X73839999Y-80072203D01*
X73784814Y-79905666D01*
X73692712Y-79756344D01*
X73568656Y-79632288D01*
X73475888Y-79575069D01*
X73419336Y-79540187D01*
X73419331Y-79540185D01*
X73417862Y-79539698D01*
X73252797Y-79485001D01*
X73252795Y-79485000D01*
X73150010Y-79474500D01*
X71849998Y-79474500D01*
X71849981Y-79474501D01*
X71747203Y-79485000D01*
X71747200Y-79485001D01*
X71580668Y-79540185D01*
X71580663Y-79540187D01*
X71431342Y-79632289D01*
X71307289Y-79756342D01*
X71211821Y-79911121D01*
X71159873Y-79957845D01*
X71090910Y-79969068D01*
X71026828Y-79941224D01*
X71018601Y-79933705D01*
X70871402Y-79786506D01*
X70871395Y-79786501D01*
X70677834Y-79650967D01*
X70677830Y-79650965D01*
X70637777Y-79632288D01*
X70463663Y-79551097D01*
X70463659Y-79551096D01*
X70463655Y-79551094D01*
X70235413Y-79489938D01*
X70235403Y-79489936D01*
X70000001Y-79469341D01*
X69999999Y-79469341D01*
X69764596Y-79489936D01*
X69764586Y-79489938D01*
X69536344Y-79551094D01*
X69536335Y-79551098D01*
X69322171Y-79650964D01*
X69322169Y-79650965D01*
X69128597Y-79786505D01*
X68961505Y-79953597D01*
X68851575Y-80110595D01*
X68796998Y-80154220D01*
X68727500Y-80161414D01*
X68665145Y-80129891D01*
X68648425Y-80110595D01*
X68538494Y-79953597D01*
X68371402Y-79786506D01*
X68371395Y-79786501D01*
X68177834Y-79650967D01*
X68177830Y-79650965D01*
X68137777Y-79632288D01*
X67963663Y-79551097D01*
X67963659Y-79551096D01*
X67963655Y-79551094D01*
X67735413Y-79489938D01*
X67735403Y-79489936D01*
X67500001Y-79469341D01*
X67499999Y-79469341D01*
X67264596Y-79489936D01*
X67264586Y-79489938D01*
X67036344Y-79551094D01*
X67036335Y-79551098D01*
X66822171Y-79650964D01*
X66822169Y-79650965D01*
X66628597Y-79786505D01*
X66461508Y-79953594D01*
X66351574Y-80110596D01*
X66296997Y-80154221D01*
X66227498Y-80161413D01*
X66165144Y-80129891D01*
X66148424Y-80110595D01*
X66038494Y-79953597D01*
X65871402Y-79786506D01*
X65871395Y-79786501D01*
X65677834Y-79650967D01*
X65677830Y-79650965D01*
X65637777Y-79632288D01*
X65463663Y-79551097D01*
X65463659Y-79551096D01*
X65463655Y-79551094D01*
X65235413Y-79489938D01*
X65235403Y-79489936D01*
X65000001Y-79469341D01*
X64999999Y-79469341D01*
X64764596Y-79489936D01*
X64764586Y-79489938D01*
X64536344Y-79551094D01*
X64536335Y-79551098D01*
X64322171Y-79650964D01*
X64322169Y-79650965D01*
X64128597Y-79786505D01*
X63961508Y-79953594D01*
X63851574Y-80110596D01*
X63796997Y-80154221D01*
X63727498Y-80161413D01*
X63665144Y-80129891D01*
X63648424Y-80110595D01*
X63538494Y-79953597D01*
X63371402Y-79786506D01*
X63371395Y-79786501D01*
X63177834Y-79650967D01*
X63177830Y-79650965D01*
X63137777Y-79632288D01*
X62963663Y-79551097D01*
X62963659Y-79551096D01*
X62963655Y-79551094D01*
X62735413Y-79489938D01*
X62735403Y-79489936D01*
X62500001Y-79469341D01*
X62499999Y-79469341D01*
X62264596Y-79489936D01*
X62264586Y-79489938D01*
X62036344Y-79551094D01*
X62036335Y-79551098D01*
X61822171Y-79650964D01*
X61822169Y-79650965D01*
X61628597Y-79786505D01*
X61461508Y-79953594D01*
X61351574Y-80110596D01*
X61296997Y-80154221D01*
X61227498Y-80161413D01*
X61165144Y-80129891D01*
X61148424Y-80110595D01*
X61038494Y-79953597D01*
X60871402Y-79786506D01*
X60871395Y-79786501D01*
X60677834Y-79650967D01*
X60677830Y-79650965D01*
X60637777Y-79632288D01*
X60463663Y-79551097D01*
X60463659Y-79551096D01*
X60463655Y-79551094D01*
X60235413Y-79489938D01*
X60235403Y-79489936D01*
X60000001Y-79469341D01*
X59999999Y-79469341D01*
X59764596Y-79489936D01*
X59764586Y-79489938D01*
X59536344Y-79551094D01*
X59536335Y-79551098D01*
X59322171Y-79650964D01*
X59322169Y-79650965D01*
X59128597Y-79786505D01*
X58961505Y-79953597D01*
X58825965Y-80147169D01*
X58825964Y-80147171D01*
X58726098Y-80361335D01*
X58726094Y-80361344D01*
X58664938Y-80589586D01*
X58664936Y-80589596D01*
X58649500Y-80766034D01*
X58649500Y-81133966D01*
X53748453Y-81133966D01*
X53634002Y-81031418D01*
X53408092Y-80881957D01*
X53408090Y-80881956D01*
X53162824Y-80766980D01*
X53162819Y-80766978D01*
X53162814Y-80766976D01*
X52903442Y-80688942D01*
X52903428Y-80688939D01*
X52787791Y-80671921D01*
X52635439Y-80649500D01*
X52432369Y-80649500D01*
X52432364Y-80649500D01*
X52229844Y-80664323D01*
X52229831Y-80664325D01*
X51965453Y-80723217D01*
X51965446Y-80723220D01*
X51712439Y-80819987D01*
X51476226Y-80952557D01*
X51261822Y-81118112D01*
X51073822Y-81313109D01*
X51073816Y-81313116D01*
X50916202Y-81533419D01*
X50916199Y-81533424D01*
X50792350Y-81774309D01*
X50792343Y-81774327D01*
X50704884Y-82030685D01*
X50704881Y-82030699D01*
X50689588Y-82113494D01*
X50661104Y-82267710D01*
X50655681Y-82297068D01*
X50655680Y-82297075D01*
X50645787Y-82567763D01*
X49000500Y-82567763D01*
X49000500Y-76441411D01*
X49550771Y-76441411D01*
X49560707Y-76675341D01*
X49560707Y-76675342D01*
X49610038Y-76904236D01*
X49696078Y-77118354D01*
X49697340Y-77121494D01*
X49726342Y-77168596D01*
X49820103Y-77320875D01*
X49974793Y-77496637D01*
X49974797Y-77496641D01*
X50156969Y-77643734D01*
X50156969Y-77643735D01*
X50361377Y-77757924D01*
X50361381Y-77757926D01*
X50582151Y-77835929D01*
X50710929Y-77858010D01*
X50812919Y-77875499D01*
X50812928Y-77875500D01*
X50988433Y-77875500D01*
X51163296Y-77860617D01*
X51163299Y-77860616D01*
X51163301Y-77860616D01*
X51389890Y-77801617D01*
X51520242Y-77742693D01*
X51603244Y-77705175D01*
X51603245Y-77705173D01*
X51603250Y-77705172D01*
X51797241Y-77574057D01*
X51966283Y-77412044D01*
X52105513Y-77223792D01*
X52210926Y-77014718D01*
X52279489Y-76790837D01*
X52309229Y-76558589D01*
X52299292Y-76324655D01*
X52249962Y-76095766D01*
X52211480Y-76000000D01*
X52889464Y-76000000D01*
X52909564Y-76216918D01*
X52909564Y-76216920D01*
X52909565Y-76216923D01*
X52969134Y-76426287D01*
X52969184Y-76426462D01*
X53012916Y-76514287D01*
X53066288Y-76621472D01*
X53197573Y-76795322D01*
X53358568Y-76942088D01*
X53358575Y-76942092D01*
X53358576Y-76942093D01*
X53543786Y-77056770D01*
X53543792Y-77056773D01*
X53566664Y-77065633D01*
X53746931Y-77135470D01*
X53961074Y-77175500D01*
X53961076Y-77175500D01*
X54178924Y-77175500D01*
X54178926Y-77175500D01*
X54393069Y-77135470D01*
X54596210Y-77056772D01*
X54781432Y-76942088D01*
X54942427Y-76795322D01*
X55073712Y-76621472D01*
X55170817Y-76426459D01*
X55220734Y-76251016D01*
X55258013Y-76191926D01*
X55321322Y-76162368D01*
X55390562Y-76171730D01*
X55443748Y-76217039D01*
X55459264Y-76251013D01*
X55509134Y-76426287D01*
X55509184Y-76426462D01*
X55552916Y-76514287D01*
X55606288Y-76621472D01*
X55737573Y-76795322D01*
X55898568Y-76942088D01*
X55898575Y-76942092D01*
X55898576Y-76942093D01*
X56083786Y-77056770D01*
X56083792Y-77056773D01*
X56106664Y-77065633D01*
X56286931Y-77135470D01*
X56501074Y-77175500D01*
X56501076Y-77175500D01*
X56718924Y-77175500D01*
X56718926Y-77175500D01*
X56933069Y-77135470D01*
X57136210Y-77056772D01*
X57321432Y-76942088D01*
X57482427Y-76795322D01*
X57613712Y-76621472D01*
X57710817Y-76426459D01*
X57760734Y-76251016D01*
X57798013Y-76191926D01*
X57861322Y-76162368D01*
X57930562Y-76171730D01*
X57983748Y-76217039D01*
X57999264Y-76251013D01*
X58049134Y-76426287D01*
X58049184Y-76426462D01*
X58092916Y-76514287D01*
X58146288Y-76621472D01*
X58277573Y-76795322D01*
X58438568Y-76942088D01*
X58438575Y-76942092D01*
X58438576Y-76942093D01*
X58623786Y-77056770D01*
X58623792Y-77056773D01*
X58646664Y-77065633D01*
X58826931Y-77135470D01*
X59041074Y-77175500D01*
X59041076Y-77175500D01*
X59258924Y-77175500D01*
X59258926Y-77175500D01*
X59473069Y-77135470D01*
X59676210Y-77056772D01*
X59861432Y-76942088D01*
X60022427Y-76795322D01*
X60153712Y-76621472D01*
X60250817Y-76426459D01*
X60300734Y-76251016D01*
X60338013Y-76191926D01*
X60401322Y-76162368D01*
X60470562Y-76171730D01*
X60523748Y-76217039D01*
X60539264Y-76251013D01*
X60589134Y-76426287D01*
X60589184Y-76426462D01*
X60632916Y-76514287D01*
X60686288Y-76621472D01*
X60817573Y-76795322D01*
X60978568Y-76942088D01*
X60978575Y-76942092D01*
X60978576Y-76942093D01*
X61163786Y-77056770D01*
X61163792Y-77056773D01*
X61186664Y-77065633D01*
X61366931Y-77135470D01*
X61581074Y-77175500D01*
X61581076Y-77175500D01*
X61798924Y-77175500D01*
X61798926Y-77175500D01*
X62013069Y-77135470D01*
X62216210Y-77056772D01*
X62401432Y-76942088D01*
X62562427Y-76795322D01*
X62693712Y-76621472D01*
X62790817Y-76426459D01*
X62840734Y-76251016D01*
X62878013Y-76191926D01*
X62941322Y-76162368D01*
X63010562Y-76171730D01*
X63063748Y-76217039D01*
X63079264Y-76251013D01*
X63129134Y-76426287D01*
X63129184Y-76426462D01*
X63172916Y-76514287D01*
X63226288Y-76621472D01*
X63357573Y-76795322D01*
X63518568Y-76942088D01*
X63518575Y-76942092D01*
X63518576Y-76942093D01*
X63703786Y-77056770D01*
X63703792Y-77056773D01*
X63726664Y-77065633D01*
X63906931Y-77135470D01*
X64121074Y-77175500D01*
X64121076Y-77175500D01*
X64338924Y-77175500D01*
X64338926Y-77175500D01*
X64553069Y-77135470D01*
X64756210Y-77056772D01*
X64941432Y-76942088D01*
X65102427Y-76795322D01*
X65233712Y-76621472D01*
X65330817Y-76426459D01*
X65380734Y-76251015D01*
X65418011Y-76191926D01*
X65481320Y-76162368D01*
X65550560Y-76171729D01*
X65603747Y-76217039D01*
X65619265Y-76251019D01*
X65669180Y-76426454D01*
X65669183Y-76426460D01*
X65712916Y-76514287D01*
X65766288Y-76621472D01*
X65897573Y-76795322D01*
X66058568Y-76942088D01*
X66058575Y-76942092D01*
X66058576Y-76942093D01*
X66243786Y-77056770D01*
X66243792Y-77056773D01*
X66266664Y-77065633D01*
X66446931Y-77135470D01*
X66661074Y-77175500D01*
X66661076Y-77175500D01*
X66878924Y-77175500D01*
X66878926Y-77175500D01*
X67093069Y-77135470D01*
X67296210Y-77056772D01*
X67481432Y-76942088D01*
X67642427Y-76795322D01*
X67773712Y-76621472D01*
X67870817Y-76426459D01*
X67920734Y-76251016D01*
X67958013Y-76191926D01*
X68021322Y-76162368D01*
X68090562Y-76171730D01*
X68143748Y-76217039D01*
X68159264Y-76251013D01*
X68209134Y-76426287D01*
X68209184Y-76426462D01*
X68252916Y-76514287D01*
X68306288Y-76621472D01*
X68437573Y-76795322D01*
X68598568Y-76942088D01*
X68598575Y-76942092D01*
X68598576Y-76942093D01*
X68783786Y-77056770D01*
X68783792Y-77056773D01*
X68806664Y-77065633D01*
X68986931Y-77135470D01*
X69201074Y-77175500D01*
X69201076Y-77175500D01*
X69418924Y-77175500D01*
X69418926Y-77175500D01*
X69633069Y-77135470D01*
X69836210Y-77056772D01*
X70021432Y-76942088D01*
X70182427Y-76795322D01*
X70313712Y-76621472D01*
X70410817Y-76426459D01*
X70460734Y-76251015D01*
X70498011Y-76191926D01*
X70561320Y-76162368D01*
X70630560Y-76171729D01*
X70683747Y-76217039D01*
X70699265Y-76251019D01*
X70749180Y-76426454D01*
X70749183Y-76426460D01*
X70792916Y-76514287D01*
X70846288Y-76621472D01*
X70977573Y-76795322D01*
X71138568Y-76942088D01*
X71138575Y-76942092D01*
X71138576Y-76942093D01*
X71323786Y-77056770D01*
X71323792Y-77056773D01*
X71346664Y-77065633D01*
X71526931Y-77135470D01*
X71741074Y-77175500D01*
X71741076Y-77175500D01*
X71958924Y-77175500D01*
X71958926Y-77175500D01*
X72173069Y-77135470D01*
X72376210Y-77056772D01*
X72561432Y-76942088D01*
X72722427Y-76795322D01*
X72853712Y-76621472D01*
X72950817Y-76426459D01*
X73000734Y-76251016D01*
X73038013Y-76191926D01*
X73101322Y-76162368D01*
X73170562Y-76171730D01*
X73223748Y-76217039D01*
X73239264Y-76251013D01*
X73289134Y-76426287D01*
X73289184Y-76426462D01*
X73332916Y-76514287D01*
X73386288Y-76621472D01*
X73517573Y-76795322D01*
X73678568Y-76942088D01*
X73678575Y-76942092D01*
X73678576Y-76942093D01*
X73863786Y-77056770D01*
X73863792Y-77056773D01*
X73886664Y-77065633D01*
X74066931Y-77135470D01*
X74281074Y-77175500D01*
X74281076Y-77175500D01*
X74498924Y-77175500D01*
X74498926Y-77175500D01*
X74713069Y-77135470D01*
X74916210Y-77056772D01*
X75101432Y-76942088D01*
X75262427Y-76795322D01*
X75393712Y-76621472D01*
X75490817Y-76426459D01*
X75540734Y-76251015D01*
X75578011Y-76191926D01*
X75641320Y-76162368D01*
X75710560Y-76171729D01*
X75763747Y-76217039D01*
X75779265Y-76251019D01*
X75829180Y-76426454D01*
X75829183Y-76426460D01*
X75872916Y-76514287D01*
X75926288Y-76621472D01*
X76057573Y-76795322D01*
X76218568Y-76942088D01*
X76218575Y-76942092D01*
X76218576Y-76942093D01*
X76403786Y-77056770D01*
X76403792Y-77056773D01*
X76426664Y-77065633D01*
X76606931Y-77135470D01*
X76821074Y-77175500D01*
X76821076Y-77175500D01*
X77038924Y-77175500D01*
X77038926Y-77175500D01*
X77253069Y-77135470D01*
X77456210Y-77056772D01*
X77641432Y-76942088D01*
X77802427Y-76795322D01*
X77933712Y-76621472D01*
X78030817Y-76426459D01*
X78080734Y-76251016D01*
X78118013Y-76191926D01*
X78181322Y-76162368D01*
X78250562Y-76171730D01*
X78303748Y-76217039D01*
X78319264Y-76251013D01*
X78369134Y-76426287D01*
X78369184Y-76426462D01*
X78412916Y-76514287D01*
X78466288Y-76621472D01*
X78597573Y-76795322D01*
X78758568Y-76942088D01*
X78758575Y-76942092D01*
X78758576Y-76942093D01*
X78943786Y-77056770D01*
X78943792Y-77056773D01*
X78966664Y-77065633D01*
X79146931Y-77135470D01*
X79361074Y-77175500D01*
X79361076Y-77175500D01*
X79578924Y-77175500D01*
X79578926Y-77175500D01*
X79793069Y-77135470D01*
X79996210Y-77056772D01*
X80181432Y-76942088D01*
X80342427Y-76795322D01*
X80473712Y-76621472D01*
X80570817Y-76426459D01*
X80620734Y-76251015D01*
X80658011Y-76191926D01*
X80721320Y-76162368D01*
X80790560Y-76171729D01*
X80843747Y-76217039D01*
X80859265Y-76251019D01*
X80909180Y-76426454D01*
X80909183Y-76426460D01*
X80952916Y-76514287D01*
X81006288Y-76621472D01*
X81137573Y-76795322D01*
X81298568Y-76942088D01*
X81298575Y-76942092D01*
X81298576Y-76942093D01*
X81483786Y-77056770D01*
X81483792Y-77056773D01*
X81506664Y-77065633D01*
X81686931Y-77135470D01*
X81901074Y-77175500D01*
X81901076Y-77175500D01*
X82118924Y-77175500D01*
X82118926Y-77175500D01*
X82333069Y-77135470D01*
X82536210Y-77056772D01*
X82721432Y-76942088D01*
X82882427Y-76795322D01*
X83013712Y-76621472D01*
X83110817Y-76426459D01*
X83160994Y-76250103D01*
X83198271Y-76191013D01*
X83261581Y-76161455D01*
X83330820Y-76170817D01*
X83384007Y-76216126D01*
X83399525Y-76250105D01*
X83449650Y-76426274D01*
X83449655Y-76426287D01*
X83546711Y-76621201D01*
X83546719Y-76621214D01*
X83558987Y-76637459D01*
X83974814Y-76221631D01*
X84036137Y-76188146D01*
X84105828Y-76193130D01*
X84159443Y-76232000D01*
X84240464Y-76333599D01*
X84240466Y-76333600D01*
X84312723Y-76382865D01*
X84357025Y-76436894D01*
X84365083Y-76506297D01*
X84334340Y-76569040D01*
X84330552Y-76572999D01*
X83914831Y-76988719D01*
X84024013Y-77056322D01*
X84024014Y-77056323D01*
X84227069Y-77134986D01*
X84441122Y-77175000D01*
X84658878Y-77175000D01*
X84872929Y-77134986D01*
X84872939Y-77134983D01*
X85075985Y-77056323D01*
X85075989Y-77056321D01*
X85185166Y-76988720D01*
X85185166Y-76988719D01*
X84772057Y-76575610D01*
X84738572Y-76514287D01*
X84743556Y-76444595D01*
X84785428Y-76388662D01*
X84805930Y-76376212D01*
X84806357Y-76376007D01*
X84905798Y-76283740D01*
X84928032Y-76245228D01*
X84978597Y-76197014D01*
X85047204Y-76183790D01*
X85112069Y-76209757D01*
X85123100Y-76219548D01*
X85541011Y-76637459D01*
X85553284Y-76621208D01*
X85553285Y-76621205D01*
X85650344Y-76426287D01*
X85650350Y-76426272D01*
X85700474Y-76250106D01*
X85737753Y-76191012D01*
X85801063Y-76161455D01*
X85870302Y-76170817D01*
X85923489Y-76216127D01*
X85939006Y-76250106D01*
X85989180Y-76426454D01*
X85989183Y-76426460D01*
X86032916Y-76514287D01*
X86086288Y-76621472D01*
X86217573Y-76795322D01*
X86378568Y-76942088D01*
X86378575Y-76942092D01*
X86378576Y-76942093D01*
X86563786Y-77056770D01*
X86563792Y-77056773D01*
X86586664Y-77065633D01*
X86766931Y-77135470D01*
X86981074Y-77175500D01*
X86981076Y-77175500D01*
X87198924Y-77175500D01*
X87198926Y-77175500D01*
X87413069Y-77135470D01*
X87616210Y-77056772D01*
X87801432Y-76942088D01*
X87962427Y-76795322D01*
X88093712Y-76621472D01*
X88190817Y-76426459D01*
X88240734Y-76251016D01*
X88278013Y-76191926D01*
X88341322Y-76162368D01*
X88410562Y-76171730D01*
X88463748Y-76217039D01*
X88479264Y-76251013D01*
X88529134Y-76426287D01*
X88529184Y-76426462D01*
X88572916Y-76514287D01*
X88626288Y-76621472D01*
X88757573Y-76795322D01*
X88918568Y-76942088D01*
X88918575Y-76942092D01*
X88918576Y-76942093D01*
X89103786Y-77056770D01*
X89103792Y-77056773D01*
X89126664Y-77065633D01*
X89306931Y-77135470D01*
X89521074Y-77175500D01*
X89521076Y-77175500D01*
X89738924Y-77175500D01*
X89738926Y-77175500D01*
X89953069Y-77135470D01*
X90156210Y-77056772D01*
X90341432Y-76942088D01*
X90502427Y-76795322D01*
X90633712Y-76621472D01*
X90730817Y-76426459D01*
X90780734Y-76251015D01*
X90818011Y-76191926D01*
X90881320Y-76162368D01*
X90950560Y-76171729D01*
X91003747Y-76217039D01*
X91019265Y-76251019D01*
X91069180Y-76426454D01*
X91069183Y-76426460D01*
X91112916Y-76514287D01*
X91166288Y-76621472D01*
X91297573Y-76795322D01*
X91458568Y-76942088D01*
X91458575Y-76942092D01*
X91458576Y-76942093D01*
X91643786Y-77056770D01*
X91643792Y-77056773D01*
X91666664Y-77065633D01*
X91846931Y-77135470D01*
X92061074Y-77175500D01*
X92061076Y-77175500D01*
X92278924Y-77175500D01*
X92278926Y-77175500D01*
X92493069Y-77135470D01*
X92696210Y-77056772D01*
X92881432Y-76942088D01*
X93042427Y-76795322D01*
X93173712Y-76621472D01*
X93270817Y-76426459D01*
X93320734Y-76251016D01*
X93358013Y-76191926D01*
X93421322Y-76162368D01*
X93490562Y-76171730D01*
X93543748Y-76217039D01*
X93559264Y-76251013D01*
X93609134Y-76426287D01*
X93609184Y-76426462D01*
X93652916Y-76514287D01*
X93706288Y-76621472D01*
X93837573Y-76795322D01*
X93998568Y-76942088D01*
X93998575Y-76942092D01*
X93998576Y-76942093D01*
X94183786Y-77056770D01*
X94183792Y-77056773D01*
X94206664Y-77065633D01*
X94386931Y-77135470D01*
X94601074Y-77175500D01*
X94601076Y-77175500D01*
X94818924Y-77175500D01*
X94818926Y-77175500D01*
X95033069Y-77135470D01*
X95236210Y-77056772D01*
X95421432Y-76942088D01*
X95582427Y-76795322D01*
X95713712Y-76621472D01*
X95810817Y-76426459D01*
X95860734Y-76251015D01*
X95898011Y-76191926D01*
X95961320Y-76162368D01*
X96030560Y-76171729D01*
X96083747Y-76217039D01*
X96099265Y-76251019D01*
X96149180Y-76426454D01*
X96149183Y-76426460D01*
X96192916Y-76514287D01*
X96246288Y-76621472D01*
X96377573Y-76795322D01*
X96538568Y-76942088D01*
X96538575Y-76942092D01*
X96538576Y-76942093D01*
X96723786Y-77056770D01*
X96723792Y-77056773D01*
X96746664Y-77065633D01*
X96926931Y-77135470D01*
X97141074Y-77175500D01*
X97141076Y-77175500D01*
X97358924Y-77175500D01*
X97358926Y-77175500D01*
X97573069Y-77135470D01*
X97776210Y-77056772D01*
X97961432Y-76942088D01*
X98122427Y-76795322D01*
X98253712Y-76621472D01*
X98350817Y-76426459D01*
X98371733Y-76352943D01*
X98409013Y-76293852D01*
X98472322Y-76264294D01*
X98541562Y-76273656D01*
X98594748Y-76318965D01*
X98614996Y-76385837D01*
X98615000Y-76386879D01*
X98615000Y-76722844D01*
X98621401Y-76782372D01*
X98621403Y-76782379D01*
X98671645Y-76917086D01*
X98671649Y-76917093D01*
X98757809Y-77032187D01*
X98757812Y-77032190D01*
X98872906Y-77118350D01*
X98872913Y-77118354D01*
X99007620Y-77168596D01*
X99007627Y-77168598D01*
X99067155Y-77174999D01*
X99067172Y-77175000D01*
X99540000Y-77175000D01*
X99540000Y-76561821D01*
X99559685Y-76494782D01*
X99612489Y-76449027D01*
X99681647Y-76439083D01*
X99700547Y-76443329D01*
X99722173Y-76450000D01*
X99823723Y-76450000D01*
X99823724Y-76450000D01*
X99897519Y-76438877D01*
X99966742Y-76448350D01*
X100019857Y-76493744D01*
X100039997Y-76560648D01*
X100040000Y-76561492D01*
X100040000Y-77175000D01*
X100512828Y-77175000D01*
X100512844Y-77174999D01*
X100572372Y-77168598D01*
X100572379Y-77168596D01*
X100707086Y-77118354D01*
X100707093Y-77118350D01*
X100822187Y-77032190D01*
X100822190Y-77032187D01*
X100908350Y-76917093D01*
X100908354Y-76917086D01*
X100958596Y-76782379D01*
X100958598Y-76782372D01*
X100964999Y-76722844D01*
X100965000Y-76722827D01*
X100965000Y-76441411D01*
X101550771Y-76441411D01*
X101560707Y-76675341D01*
X101560707Y-76675342D01*
X101610038Y-76904236D01*
X101696078Y-77118354D01*
X101697340Y-77121494D01*
X101726342Y-77168596D01*
X101820103Y-77320875D01*
X101974793Y-77496637D01*
X101974797Y-77496641D01*
X102156969Y-77643734D01*
X102156969Y-77643735D01*
X102361377Y-77757924D01*
X102361381Y-77757926D01*
X102582151Y-77835929D01*
X102710929Y-77858010D01*
X102812919Y-77875499D01*
X102812928Y-77875500D01*
X102988433Y-77875500D01*
X103163296Y-77860617D01*
X103163299Y-77860616D01*
X103163301Y-77860616D01*
X103389890Y-77801617D01*
X103520242Y-77742693D01*
X103603244Y-77705175D01*
X103603245Y-77705173D01*
X103603250Y-77705172D01*
X103797241Y-77574057D01*
X103966283Y-77412044D01*
X104105513Y-77223792D01*
X104210926Y-77014718D01*
X104279489Y-76790837D01*
X104309229Y-76558589D01*
X104299292Y-76324655D01*
X104249962Y-76095766D01*
X104162660Y-75878506D01*
X104068705Y-75725914D01*
X104039896Y-75679124D01*
X103885206Y-75503362D01*
X103885205Y-75503361D01*
X103885203Y-75503359D01*
X103703030Y-75356265D01*
X103703030Y-75356264D01*
X103498622Y-75242075D01*
X103277852Y-75164072D01*
X103277851Y-75164071D01*
X103277849Y-75164071D01*
X103277845Y-75164070D01*
X103277844Y-75164070D01*
X103047080Y-75124500D01*
X103047072Y-75124500D01*
X102871572Y-75124500D01*
X102871567Y-75124500D01*
X102696703Y-75139382D01*
X102470110Y-75198382D01*
X102256755Y-75294824D01*
X102256747Y-75294829D01*
X102062768Y-75425935D01*
X102062759Y-75425943D01*
X101893721Y-75587951D01*
X101893718Y-75587955D01*
X101893717Y-75587956D01*
X101849268Y-75648055D01*
X101754485Y-75776210D01*
X101649074Y-75985280D01*
X101580510Y-76209166D01*
X101550771Y-76441411D01*
X100965000Y-76441411D01*
X100965000Y-76250000D01*
X100350003Y-76250000D01*
X100282964Y-76230315D01*
X100237209Y-76177511D01*
X100227265Y-76108353D01*
X100229112Y-76098408D01*
X100243810Y-76034007D01*
X100243810Y-76034006D01*
X100232979Y-75889468D01*
X100235079Y-75889310D01*
X100238595Y-75831861D01*
X100279890Y-75775501D01*
X100345101Y-75750413D01*
X100355216Y-75750000D01*
X100965000Y-75750000D01*
X100965000Y-75277172D01*
X100964999Y-75277155D01*
X100958598Y-75217627D01*
X100958596Y-75217620D01*
X100908354Y-75082913D01*
X100908350Y-75082906D01*
X100822190Y-74967812D01*
X100822187Y-74967809D01*
X100707093Y-74881649D01*
X100707086Y-74881645D01*
X100572379Y-74831403D01*
X100572372Y-74831401D01*
X100512844Y-74825000D01*
X100040000Y-74825000D01*
X100040000Y-75438178D01*
X100020315Y-75505217D01*
X99967511Y-75550972D01*
X99898353Y-75560916D01*
X99879454Y-75556670D01*
X99857829Y-75550000D01*
X99857827Y-75550000D01*
X99756276Y-75550000D01*
X99756268Y-75550000D01*
X99682481Y-75561122D01*
X99613256Y-75551649D01*
X99560143Y-75506254D01*
X99540003Y-75439350D01*
X99540000Y-75438507D01*
X99540000Y-74825000D01*
X99067155Y-74825000D01*
X99007627Y-74831401D01*
X99007620Y-74831403D01*
X98872913Y-74881645D01*
X98872906Y-74881649D01*
X98757812Y-74967809D01*
X98757809Y-74967812D01*
X98671649Y-75082906D01*
X98671645Y-75082913D01*
X98621403Y-75217620D01*
X98621401Y-75217627D01*
X98615000Y-75277155D01*
X98615000Y-75613120D01*
X98595315Y-75680159D01*
X98542511Y-75725914D01*
X98473353Y-75735858D01*
X98409797Y-75706833D01*
X98372023Y-75648055D01*
X98371734Y-75647054D01*
X98350819Y-75573545D01*
X98350816Y-75573539D01*
X98317312Y-75506254D01*
X98253712Y-75378528D01*
X98122427Y-75204678D01*
X97961432Y-75057912D01*
X97961428Y-75057909D01*
X97961423Y-75057906D01*
X97776213Y-74943229D01*
X97776207Y-74943226D01*
X97691112Y-74910260D01*
X97573069Y-74864530D01*
X97358926Y-74824500D01*
X97141074Y-74824500D01*
X96926931Y-74864530D01*
X96882753Y-74881645D01*
X96723792Y-74943226D01*
X96723786Y-74943229D01*
X96538576Y-75057906D01*
X96538566Y-75057913D01*
X96377574Y-75204676D01*
X96246288Y-75378527D01*
X96149183Y-75573539D01*
X96149180Y-75573545D01*
X96099266Y-75748980D01*
X96061987Y-75808073D01*
X95998678Y-75837631D01*
X95929438Y-75828269D01*
X95876252Y-75782960D01*
X95860734Y-75748980D01*
X95810819Y-75573545D01*
X95810816Y-75573539D01*
X95777312Y-75506254D01*
X95713712Y-75378528D01*
X95582427Y-75204678D01*
X95421432Y-75057912D01*
X95421428Y-75057909D01*
X95421423Y-75057906D01*
X95236213Y-74943229D01*
X95236207Y-74943226D01*
X95151112Y-74910260D01*
X95033069Y-74864530D01*
X94818926Y-74824500D01*
X94601074Y-74824500D01*
X94386931Y-74864530D01*
X94342753Y-74881645D01*
X94183792Y-74943226D01*
X94183786Y-74943229D01*
X93998576Y-75057906D01*
X93998566Y-75057913D01*
X93837574Y-75204676D01*
X93706288Y-75378527D01*
X93609183Y-75573539D01*
X93609180Y-75573545D01*
X93559266Y-75748980D01*
X93521987Y-75808073D01*
X93458678Y-75837631D01*
X93389438Y-75828269D01*
X93336252Y-75782960D01*
X93320734Y-75748980D01*
X93270819Y-75573545D01*
X93270816Y-75573539D01*
X93237312Y-75506254D01*
X93173712Y-75378528D01*
X93042427Y-75204678D01*
X92881432Y-75057912D01*
X92881428Y-75057909D01*
X92881423Y-75057906D01*
X92696213Y-74943229D01*
X92696207Y-74943226D01*
X92611113Y-74910260D01*
X92493069Y-74864530D01*
X92278926Y-74824500D01*
X92061074Y-74824500D01*
X91846931Y-74864530D01*
X91802753Y-74881645D01*
X91643792Y-74943226D01*
X91643786Y-74943229D01*
X91458576Y-75057906D01*
X91458566Y-75057913D01*
X91297574Y-75204676D01*
X91166288Y-75378527D01*
X91069183Y-75573539D01*
X91069180Y-75573545D01*
X91019266Y-75748980D01*
X90981987Y-75808073D01*
X90918678Y-75837631D01*
X90849438Y-75828269D01*
X90796252Y-75782960D01*
X90780734Y-75748980D01*
X90730819Y-75573545D01*
X90730816Y-75573539D01*
X90697312Y-75506254D01*
X90633712Y-75378528D01*
X90502427Y-75204678D01*
X90341432Y-75057912D01*
X90341428Y-75057909D01*
X90341423Y-75057906D01*
X90156213Y-74943229D01*
X90156207Y-74943226D01*
X90071113Y-74910260D01*
X89953069Y-74864530D01*
X89738926Y-74824500D01*
X89521074Y-74824500D01*
X89306931Y-74864530D01*
X89262753Y-74881645D01*
X89103792Y-74943226D01*
X89103786Y-74943229D01*
X88918576Y-75057906D01*
X88918566Y-75057913D01*
X88757574Y-75204676D01*
X88626288Y-75378527D01*
X88529183Y-75573539D01*
X88529180Y-75573545D01*
X88479266Y-75748980D01*
X88441987Y-75808073D01*
X88378678Y-75837631D01*
X88309438Y-75828269D01*
X88256252Y-75782960D01*
X88240734Y-75748980D01*
X88190819Y-75573545D01*
X88190816Y-75573539D01*
X88157312Y-75506254D01*
X88093712Y-75378528D01*
X87962427Y-75204678D01*
X87801432Y-75057912D01*
X87801428Y-75057909D01*
X87801423Y-75057906D01*
X87616213Y-74943229D01*
X87616207Y-74943226D01*
X87531112Y-74910260D01*
X87413069Y-74864530D01*
X87198926Y-74824500D01*
X86981074Y-74824500D01*
X86766931Y-74864530D01*
X86722753Y-74881645D01*
X86563792Y-74943226D01*
X86563786Y-74943229D01*
X86378576Y-75057906D01*
X86378566Y-75057913D01*
X86217574Y-75204676D01*
X86086288Y-75378527D01*
X85989183Y-75573539D01*
X85989180Y-75573545D01*
X85939006Y-75749893D01*
X85901727Y-75808986D01*
X85838418Y-75838544D01*
X85769178Y-75829182D01*
X85715991Y-75783873D01*
X85700474Y-75749893D01*
X85650350Y-75573727D01*
X85650344Y-75573712D01*
X85553284Y-75378791D01*
X85541011Y-75362539D01*
X85125184Y-75778367D01*
X85063861Y-75811852D01*
X84994169Y-75806868D01*
X84940555Y-75767998D01*
X84926202Y-75750000D01*
X84899296Y-75716260D01*
X84859535Y-75666400D01*
X84859533Y-75666399D01*
X84787275Y-75617134D01*
X84742973Y-75563106D01*
X84734915Y-75493702D01*
X84765657Y-75430959D01*
X84769446Y-75427000D01*
X85185167Y-75011279D01*
X85075983Y-74943676D01*
X84872930Y-74865013D01*
X84658878Y-74825000D01*
X84441122Y-74825000D01*
X84227070Y-74865013D01*
X84227069Y-74865013D01*
X84024016Y-74943676D01*
X84024010Y-74943679D01*
X83914832Y-75011278D01*
X83914831Y-75011279D01*
X84327942Y-75424389D01*
X84361427Y-75485712D01*
X84356443Y-75555403D01*
X84314572Y-75611337D01*
X84294073Y-75623785D01*
X84293646Y-75623990D01*
X84293645Y-75623990D01*
X84194202Y-75716260D01*
X84194199Y-75716264D01*
X84171967Y-75754771D01*
X84121400Y-75802987D01*
X84052793Y-75816209D01*
X83987928Y-75790241D01*
X83976899Y-75780452D01*
X83558987Y-75362539D01*
X83546716Y-75378789D01*
X83449655Y-75573712D01*
X83449650Y-75573725D01*
X83399525Y-75749894D01*
X83362245Y-75808987D01*
X83298935Y-75838544D01*
X83229696Y-75829182D01*
X83176510Y-75783872D01*
X83160994Y-75749898D01*
X83110817Y-75573541D01*
X83110815Y-75573537D01*
X83043414Y-75438178D01*
X83013712Y-75378528D01*
X82882427Y-75204678D01*
X82721432Y-75057912D01*
X82721428Y-75057909D01*
X82721423Y-75057906D01*
X82536213Y-74943229D01*
X82536207Y-74943226D01*
X82451113Y-74910260D01*
X82333069Y-74864530D01*
X82118926Y-74824500D01*
X81901074Y-74824500D01*
X81686931Y-74864530D01*
X81642753Y-74881645D01*
X81483792Y-74943226D01*
X81483786Y-74943229D01*
X81298576Y-75057906D01*
X81298566Y-75057913D01*
X81137574Y-75204676D01*
X81006288Y-75378527D01*
X80909183Y-75573539D01*
X80909180Y-75573545D01*
X80859266Y-75748980D01*
X80821987Y-75808073D01*
X80758678Y-75837631D01*
X80689438Y-75828269D01*
X80636252Y-75782960D01*
X80620734Y-75748980D01*
X80570819Y-75573545D01*
X80570816Y-75573539D01*
X80537312Y-75506254D01*
X80473712Y-75378528D01*
X80342427Y-75204678D01*
X80181432Y-75057912D01*
X80181428Y-75057909D01*
X80181423Y-75057906D01*
X79996213Y-74943229D01*
X79996207Y-74943226D01*
X79911113Y-74910260D01*
X79793069Y-74864530D01*
X79578926Y-74824500D01*
X79361074Y-74824500D01*
X79146931Y-74864530D01*
X79102753Y-74881645D01*
X78943792Y-74943226D01*
X78943786Y-74943229D01*
X78758576Y-75057906D01*
X78758566Y-75057913D01*
X78597574Y-75204676D01*
X78466288Y-75378527D01*
X78369183Y-75573539D01*
X78369180Y-75573545D01*
X78319266Y-75748980D01*
X78281987Y-75808073D01*
X78218678Y-75837631D01*
X78149438Y-75828269D01*
X78096252Y-75782960D01*
X78080734Y-75748980D01*
X78030819Y-75573545D01*
X78030816Y-75573539D01*
X77997312Y-75506254D01*
X77933712Y-75378528D01*
X77802427Y-75204678D01*
X77641432Y-75057912D01*
X77641428Y-75057909D01*
X77641423Y-75057906D01*
X77456213Y-74943229D01*
X77456207Y-74943226D01*
X77371112Y-74910260D01*
X77253069Y-74864530D01*
X77038926Y-74824500D01*
X76821074Y-74824500D01*
X76606931Y-74864530D01*
X76562753Y-74881645D01*
X76403792Y-74943226D01*
X76403786Y-74943229D01*
X76218576Y-75057906D01*
X76218566Y-75057913D01*
X76057574Y-75204676D01*
X75926288Y-75378527D01*
X75829183Y-75573539D01*
X75829180Y-75573545D01*
X75779266Y-75748980D01*
X75741987Y-75808073D01*
X75678678Y-75837631D01*
X75609438Y-75828269D01*
X75556252Y-75782960D01*
X75540734Y-75748980D01*
X75490819Y-75573545D01*
X75490816Y-75573539D01*
X75457312Y-75506254D01*
X75393712Y-75378528D01*
X75262427Y-75204678D01*
X75101432Y-75057912D01*
X75101428Y-75057909D01*
X75101423Y-75057906D01*
X74916213Y-74943229D01*
X74916207Y-74943226D01*
X74831112Y-74910260D01*
X74713069Y-74864530D01*
X74498926Y-74824500D01*
X74281074Y-74824500D01*
X74066931Y-74864530D01*
X74022753Y-74881645D01*
X73863792Y-74943226D01*
X73863786Y-74943229D01*
X73678576Y-75057906D01*
X73678566Y-75057913D01*
X73517574Y-75204676D01*
X73386288Y-75378527D01*
X73289183Y-75573539D01*
X73289180Y-75573545D01*
X73239266Y-75748980D01*
X73201987Y-75808073D01*
X73138678Y-75837631D01*
X73069438Y-75828269D01*
X73016252Y-75782960D01*
X73000734Y-75748980D01*
X72950819Y-75573545D01*
X72950816Y-75573539D01*
X72917312Y-75506254D01*
X72853712Y-75378528D01*
X72722427Y-75204678D01*
X72561432Y-75057912D01*
X72561428Y-75057909D01*
X72561423Y-75057906D01*
X72376213Y-74943229D01*
X72376207Y-74943226D01*
X72291113Y-74910260D01*
X72173069Y-74864530D01*
X71958926Y-74824500D01*
X71741074Y-74824500D01*
X71526931Y-74864530D01*
X71482753Y-74881645D01*
X71323792Y-74943226D01*
X71323786Y-74943229D01*
X71138576Y-75057906D01*
X71138566Y-75057913D01*
X70977574Y-75204676D01*
X70846288Y-75378527D01*
X70749183Y-75573539D01*
X70749180Y-75573545D01*
X70699266Y-75748980D01*
X70661987Y-75808073D01*
X70598678Y-75837631D01*
X70529438Y-75828269D01*
X70476252Y-75782960D01*
X70460734Y-75748980D01*
X70410819Y-75573545D01*
X70410816Y-75573539D01*
X70377312Y-75506254D01*
X70313712Y-75378528D01*
X70182427Y-75204678D01*
X70021432Y-75057912D01*
X70021428Y-75057909D01*
X70021423Y-75057906D01*
X69836213Y-74943229D01*
X69836207Y-74943226D01*
X69751113Y-74910260D01*
X69633069Y-74864530D01*
X69418926Y-74824500D01*
X69201074Y-74824500D01*
X68986931Y-74864530D01*
X68942753Y-74881645D01*
X68783792Y-74943226D01*
X68783786Y-74943229D01*
X68598576Y-75057906D01*
X68598566Y-75057913D01*
X68437574Y-75204676D01*
X68306288Y-75378527D01*
X68209183Y-75573539D01*
X68209180Y-75573545D01*
X68159266Y-75748980D01*
X68121987Y-75808073D01*
X68058678Y-75837631D01*
X67989438Y-75828269D01*
X67936252Y-75782960D01*
X67920734Y-75748980D01*
X67870819Y-75573545D01*
X67870816Y-75573539D01*
X67837312Y-75506254D01*
X67773712Y-75378528D01*
X67642427Y-75204678D01*
X67481432Y-75057912D01*
X67481428Y-75057909D01*
X67481423Y-75057906D01*
X67296213Y-74943229D01*
X67296207Y-74943226D01*
X67211112Y-74910260D01*
X67093069Y-74864530D01*
X66878926Y-74824500D01*
X66661074Y-74824500D01*
X66446931Y-74864530D01*
X66402753Y-74881645D01*
X66243792Y-74943226D01*
X66243786Y-74943229D01*
X66058576Y-75057906D01*
X66058566Y-75057913D01*
X65897574Y-75204676D01*
X65766288Y-75378527D01*
X65669183Y-75573539D01*
X65669180Y-75573545D01*
X65619266Y-75748980D01*
X65581987Y-75808073D01*
X65518678Y-75837631D01*
X65449438Y-75828269D01*
X65396252Y-75782960D01*
X65380734Y-75748980D01*
X65330819Y-75573545D01*
X65330816Y-75573539D01*
X65297312Y-75506254D01*
X65233712Y-75378528D01*
X65102427Y-75204678D01*
X64941432Y-75057912D01*
X64941428Y-75057909D01*
X64941423Y-75057906D01*
X64756213Y-74943229D01*
X64756207Y-74943226D01*
X64671112Y-74910260D01*
X64553069Y-74864530D01*
X64338926Y-74824500D01*
X64121074Y-74824500D01*
X63906931Y-74864530D01*
X63862753Y-74881645D01*
X63703792Y-74943226D01*
X63703786Y-74943229D01*
X63518576Y-75057906D01*
X63518566Y-75057913D01*
X63357574Y-75204676D01*
X63226288Y-75378527D01*
X63129183Y-75573539D01*
X63129180Y-75573545D01*
X63079266Y-75748980D01*
X63041987Y-75808073D01*
X62978678Y-75837631D01*
X62909438Y-75828269D01*
X62856252Y-75782960D01*
X62840734Y-75748980D01*
X62790819Y-75573545D01*
X62790816Y-75573539D01*
X62757312Y-75506254D01*
X62693712Y-75378528D01*
X62562427Y-75204678D01*
X62401432Y-75057912D01*
X62401428Y-75057909D01*
X62401423Y-75057906D01*
X62216213Y-74943229D01*
X62216207Y-74943226D01*
X62131113Y-74910260D01*
X62013069Y-74864530D01*
X61798926Y-74824500D01*
X61581074Y-74824500D01*
X61366931Y-74864530D01*
X61322753Y-74881645D01*
X61163792Y-74943226D01*
X61163786Y-74943229D01*
X60978576Y-75057906D01*
X60978566Y-75057913D01*
X60817574Y-75204676D01*
X60686288Y-75378527D01*
X60589183Y-75573539D01*
X60589180Y-75573545D01*
X60539266Y-75748980D01*
X60501987Y-75808073D01*
X60438678Y-75837631D01*
X60369438Y-75828269D01*
X60316252Y-75782960D01*
X60300734Y-75748980D01*
X60250819Y-75573545D01*
X60250816Y-75573539D01*
X60217312Y-75506254D01*
X60153712Y-75378528D01*
X60022427Y-75204678D01*
X59861432Y-75057912D01*
X59861428Y-75057909D01*
X59861423Y-75057906D01*
X59676213Y-74943229D01*
X59676207Y-74943226D01*
X59591113Y-74910260D01*
X59473069Y-74864530D01*
X59258926Y-74824500D01*
X59041074Y-74824500D01*
X58826931Y-74864530D01*
X58782753Y-74881645D01*
X58623792Y-74943226D01*
X58623786Y-74943229D01*
X58438576Y-75057906D01*
X58438566Y-75057913D01*
X58277574Y-75204676D01*
X58146288Y-75378527D01*
X58049183Y-75573539D01*
X58049180Y-75573545D01*
X57999266Y-75748980D01*
X57961987Y-75808073D01*
X57898678Y-75837631D01*
X57829438Y-75828269D01*
X57776252Y-75782960D01*
X57760734Y-75748980D01*
X57710819Y-75573545D01*
X57710816Y-75573539D01*
X57677312Y-75506254D01*
X57613712Y-75378528D01*
X57482427Y-75204678D01*
X57321432Y-75057912D01*
X57321428Y-75057909D01*
X57321423Y-75057906D01*
X57136213Y-74943229D01*
X57136207Y-74943226D01*
X57051112Y-74910260D01*
X56933069Y-74864530D01*
X56718926Y-74824500D01*
X56501074Y-74824500D01*
X56286931Y-74864530D01*
X56242753Y-74881645D01*
X56083792Y-74943226D01*
X56083786Y-74943229D01*
X55898576Y-75057906D01*
X55898566Y-75057913D01*
X55737574Y-75204676D01*
X55606288Y-75378527D01*
X55509183Y-75573539D01*
X55509180Y-75573545D01*
X55459266Y-75748980D01*
X55421987Y-75808073D01*
X55358678Y-75837631D01*
X55289438Y-75828269D01*
X55236252Y-75782960D01*
X55220734Y-75748980D01*
X55170819Y-75573545D01*
X55170816Y-75573539D01*
X55137312Y-75506254D01*
X55073712Y-75378528D01*
X54942427Y-75204678D01*
X54781432Y-75057912D01*
X54781428Y-75057909D01*
X54781423Y-75057906D01*
X54596213Y-74943229D01*
X54596207Y-74943226D01*
X54511112Y-74910260D01*
X54393069Y-74864530D01*
X54178926Y-74824500D01*
X53961074Y-74824500D01*
X53746931Y-74864530D01*
X53702753Y-74881645D01*
X53543792Y-74943226D01*
X53543786Y-74943229D01*
X53358576Y-75057906D01*
X53358566Y-75057913D01*
X53197574Y-75204676D01*
X53066288Y-75378527D01*
X52969184Y-75573537D01*
X52958429Y-75611337D01*
X52911520Y-75776208D01*
X52909564Y-75783081D01*
X52889464Y-75999999D01*
X52889464Y-76000000D01*
X52211480Y-76000000D01*
X52162660Y-75878506D01*
X52068705Y-75725914D01*
X52039896Y-75679124D01*
X51885206Y-75503362D01*
X51885205Y-75503361D01*
X51885203Y-75503359D01*
X51703030Y-75356265D01*
X51703030Y-75356264D01*
X51498622Y-75242075D01*
X51277852Y-75164072D01*
X51277851Y-75164071D01*
X51277849Y-75164071D01*
X51277845Y-75164070D01*
X51277844Y-75164070D01*
X51047080Y-75124500D01*
X51047072Y-75124500D01*
X50871572Y-75124500D01*
X50871567Y-75124500D01*
X50696703Y-75139382D01*
X50470110Y-75198382D01*
X50256755Y-75294824D01*
X50256747Y-75294829D01*
X50062768Y-75425935D01*
X50062759Y-75425943D01*
X49893721Y-75587951D01*
X49893718Y-75587955D01*
X49893717Y-75587956D01*
X49849268Y-75648055D01*
X49754485Y-75776210D01*
X49649074Y-75985280D01*
X49580510Y-76209166D01*
X49550771Y-76441411D01*
X49000500Y-76441411D01*
X49000500Y-73124500D01*
X49020185Y-73057461D01*
X49072989Y-73011706D01*
X49124500Y-73000500D01*
X104875500Y-73000500D01*
X104942539Y-73020185D01*
G37*
G04 #@! TD.AperFunction*
M02*
