G04 #@! TF.GenerationSoftware,KiCad,Pcbnew,7.0.7*
G04 #@! TF.CreationDate,2024-02-22T14:50:09+01:00*
G04 #@! TF.ProjectId,USB_Breakout_Test_Jig,5553425f-4272-4656-916b-6f75745f5465,v1.0*
G04 #@! TF.SameCoordinates,Original*
G04 #@! TF.FileFunction,Copper,L1,Top*
G04 #@! TF.FilePolarity,Positive*
%FSLAX46Y46*%
G04 Gerber Fmt 4.6, Leading zero omitted, Abs format (unit mm)*
G04 Created by KiCad (PCBNEW 7.0.7) date 2024-02-22 14:50:09*
%MOMM*%
%LPD*%
G01*
G04 APERTURE LIST*
G04 Aperture macros list*
%AMRoundRect*
0 Rectangle with rounded corners*
0 $1 Rounding radius*
0 $2 $3 $4 $5 $6 $7 $8 $9 X,Y pos of 4 corners*
0 Add a 4 corners polygon primitive as box body*
4,1,4,$2,$3,$4,$5,$6,$7,$8,$9,$2,$3,0*
0 Add four circle primitives for the rounded corners*
1,1,$1+$1,$2,$3*
1,1,$1+$1,$4,$5*
1,1,$1+$1,$6,$7*
1,1,$1+$1,$8,$9*
0 Add four rect primitives between the rounded corners*
20,1,$1+$1,$2,$3,$4,$5,0*
20,1,$1+$1,$4,$5,$6,$7,0*
20,1,$1+$1,$6,$7,$8,$9,0*
20,1,$1+$1,$8,$9,$2,$3,0*%
G04 Aperture macros list end*
G04 #@! TA.AperFunction,ComponentPad*
%ADD10RoundRect,0.250000X0.600000X0.725000X-0.600000X0.725000X-0.600000X-0.725000X0.600000X-0.725000X0*%
G04 #@! TD*
G04 #@! TA.AperFunction,ComponentPad*
%ADD11O,1.700000X1.950000*%
G04 #@! TD*
G04 #@! TA.AperFunction,ComponentPad*
%ADD12R,2.000000X2.000000*%
G04 #@! TD*
G04 #@! TA.AperFunction,ComponentPad*
%ADD13C,2.000000*%
G04 #@! TD*
G04 #@! TA.AperFunction,ComponentPad*
%ADD14R,1.508000X1.508000*%
G04 #@! TD*
G04 #@! TA.AperFunction,ComponentPad*
%ADD15C,1.508000*%
G04 #@! TD*
G04 #@! TA.AperFunction,ComponentPad*
%ADD16C,3.000000*%
G04 #@! TD*
G04 #@! TA.AperFunction,ComponentPad*
%ADD17R,1.350000X1.350000*%
G04 #@! TD*
G04 #@! TA.AperFunction,ComponentPad*
%ADD18C,1.350000*%
G04 #@! TD*
G04 #@! TA.AperFunction,Conductor*
%ADD19C,0.250000*%
G04 #@! TD*
G04 APERTURE END LIST*
D10*
X72500000Y-80950000D03*
D11*
X70000000Y-80950000D03*
X67500000Y-80950000D03*
X65000000Y-80950000D03*
X62500000Y-80950000D03*
X60000000Y-80950000D03*
D10*
X92500000Y-80950000D03*
D11*
X90000000Y-80950000D03*
X87500000Y-80950000D03*
X85000000Y-80950000D03*
X82500000Y-80950000D03*
X80000000Y-80950000D03*
D12*
X91200000Y-92500000D03*
D13*
X98800000Y-92500000D03*
D14*
X70190000Y-86000000D03*
D15*
X72730000Y-86000000D03*
X75270000Y-86000000D03*
X77810000Y-86000000D03*
D16*
X63000000Y-86500000D03*
X85000000Y-86500000D03*
X85000000Y-108500000D03*
X63000000Y-108500000D03*
D17*
X99790000Y-76000000D03*
D18*
X97250000Y-76000000D03*
X94710000Y-76000000D03*
X92170000Y-76000000D03*
X89630000Y-76000000D03*
X87090000Y-76000000D03*
X84550000Y-76000000D03*
X82010000Y-76000000D03*
X79470000Y-76000000D03*
X76930000Y-76000000D03*
X74390000Y-76000000D03*
X71850000Y-76000000D03*
X69310000Y-76000000D03*
X66770000Y-76000000D03*
X64230000Y-76000000D03*
X61690000Y-76000000D03*
X59150000Y-76000000D03*
X56610000Y-76000000D03*
X54070000Y-76000000D03*
D17*
X54070000Y-102000000D03*
D18*
X56610000Y-102000000D03*
X59150000Y-102000000D03*
X61690000Y-102000000D03*
X64230000Y-102000000D03*
X66770000Y-102000000D03*
X69310000Y-102000000D03*
X71850000Y-102000000D03*
X74390000Y-102000000D03*
X76930000Y-102000000D03*
X79470000Y-102000000D03*
X82010000Y-102000000D03*
X84550000Y-102000000D03*
X87090000Y-102000000D03*
X89630000Y-102000000D03*
X92170000Y-102000000D03*
X94710000Y-102000000D03*
X97250000Y-102000000D03*
X99790000Y-102000000D03*
D19*
X98800000Y-92500000D02*
X97000000Y-94300000D01*
X84550000Y-99450000D02*
X84550000Y-102000000D01*
X97000000Y-94300000D02*
X89700000Y-94300000D01*
X89700000Y-94300000D02*
X84550000Y-99450000D01*
X82010000Y-101290000D02*
X82010000Y-102000000D01*
X89300000Y-81650000D02*
X89300000Y-94000000D01*
X90000000Y-80950000D02*
X89300000Y-81650000D01*
X89300000Y-94000000D02*
X82010000Y-101290000D01*
X80000000Y-84921000D02*
X80000000Y-101470000D01*
X80000000Y-101470000D02*
X79470000Y-102000000D01*
X73050000Y-84000000D02*
X79079000Y-84000000D01*
X70000000Y-80950000D02*
X73050000Y-84000000D01*
X79079000Y-84000000D02*
X80000000Y-84921000D01*
X67500000Y-80950000D02*
X64230000Y-84220000D01*
X64230000Y-84220000D02*
X64230000Y-102000000D01*
X90750000Y-77700000D02*
X93010000Y-77700000D01*
X93010000Y-77700000D02*
X94710000Y-76000000D01*
X87500000Y-80950000D02*
X90750000Y-77700000D01*
X65000000Y-80950000D02*
X67650000Y-78300000D01*
X67650000Y-78300000D02*
X72090000Y-78300000D01*
X72090000Y-78300000D02*
X74390000Y-76000000D01*
X92500000Y-80750000D02*
X97250000Y-76000000D01*
X92500000Y-80950000D02*
X92500000Y-80750000D01*
X80000000Y-76530000D02*
X79470000Y-76000000D01*
X80000000Y-80950000D02*
X80000000Y-76530000D01*
X67910000Y-77400000D02*
X69310000Y-76000000D01*
X63550000Y-77400000D02*
X67910000Y-77400000D01*
X60000000Y-80950000D02*
X63550000Y-77400000D01*
X72500000Y-80950000D02*
X72500000Y-79000000D01*
X74630000Y-78300000D02*
X76930000Y-76000000D01*
X73200000Y-78300000D02*
X74630000Y-78300000D01*
X72500000Y-79000000D02*
X73200000Y-78300000D01*
X82500000Y-76490000D02*
X82010000Y-76000000D01*
X82500000Y-80950000D02*
X82500000Y-76490000D01*
X70000000Y-77850000D02*
X71850000Y-76000000D01*
X62500000Y-80950000D02*
X65600000Y-77850000D01*
X65600000Y-77850000D02*
X70000000Y-77850000D01*
X85000000Y-80950000D02*
X85000000Y-78090000D01*
X85000000Y-78090000D02*
X87090000Y-76000000D01*
X73200000Y-89570000D02*
X73200000Y-101250000D01*
X75270000Y-86000000D02*
X75270000Y-87500000D01*
X73200000Y-101250000D02*
X72450000Y-102000000D01*
X75270000Y-87500000D02*
X73200000Y-89570000D01*
X72450000Y-102000000D02*
X71850000Y-102000000D01*
X77810000Y-86000000D02*
X73700000Y-90110000D01*
X73700000Y-90110000D02*
X73700000Y-101310000D01*
X73700000Y-101310000D02*
X74390000Y-102000000D01*
M02*
