G04 #@! TF.GenerationSoftware,KiCad,Pcbnew,7.0.7*
G04 #@! TF.CreationDate,2024-02-22T14:50:09+01:00*
G04 #@! TF.ProjectId,USB_Breakout_Test_Jig,5553425f-4272-4656-916b-6f75745f5465,v1.0*
G04 #@! TF.SameCoordinates,Original*
G04 #@! TF.FileFunction,Legend,Top*
G04 #@! TF.FilePolarity,Positive*
%FSLAX46Y46*%
G04 Gerber Fmt 4.6, Leading zero omitted, Abs format (unit mm)*
G04 Created by KiCad (PCBNEW 7.0.7) date 2024-02-22 14:50:09*
%MOMM*%
%LPD*%
G01*
G04 APERTURE LIST*
G04 Aperture macros list*
%AMRoundRect*
0 Rectangle with rounded corners*
0 $1 Rounding radius*
0 $2 $3 $4 $5 $6 $7 $8 $9 X,Y pos of 4 corners*
0 Add a 4 corners polygon primitive as box body*
4,1,4,$2,$3,$4,$5,$6,$7,$8,$9,$2,$3,0*
0 Add four circle primitives for the rounded corners*
1,1,$1+$1,$2,$3*
1,1,$1+$1,$4,$5*
1,1,$1+$1,$6,$7*
1,1,$1+$1,$8,$9*
0 Add four rect primitives between the rounded corners*
20,1,$1+$1,$2,$3,$4,$5,0*
20,1,$1+$1,$4,$5,$6,$7,0*
20,1,$1+$1,$6,$7,$8,$9,0*
20,1,$1+$1,$8,$9,$2,$3,0*%
G04 Aperture macros list end*
%ADD10C,0.150000*%
%ADD11C,0.120000*%
%ADD12C,0.127000*%
%ADD13C,0.200000*%
%ADD14C,3.200000*%
%ADD15RoundRect,0.250000X0.600000X0.725000X-0.600000X0.725000X-0.600000X-0.725000X0.600000X-0.725000X0*%
%ADD16O,1.700000X1.950000*%
%ADD17R,2.000000X2.000000*%
%ADD18C,2.000000*%
%ADD19RoundRect,0.102000X-0.754000X-0.754000X0.754000X-0.754000X0.754000X0.754000X-0.754000X0.754000X0*%
%ADD20C,1.712000*%
%ADD21C,3.204000*%
%ADD22C,2.250000*%
%ADD23RoundRect,0.102000X0.675000X-0.675000X0.675000X0.675000X-0.675000X0.675000X-0.675000X-0.675000X0*%
%ADD24C,1.554000*%
G04 APERTURE END LIST*
D10*
X51738095Y-78754819D02*
X51738095Y-77754819D01*
X51738095Y-78231009D02*
X52309523Y-78231009D01*
X52309523Y-78754819D02*
X52309523Y-77754819D01*
X52690476Y-77754819D02*
X53309523Y-77754819D01*
X53309523Y-77754819D02*
X52976190Y-78135771D01*
X52976190Y-78135771D02*
X53119047Y-78135771D01*
X53119047Y-78135771D02*
X53214285Y-78183390D01*
X53214285Y-78183390D02*
X53261904Y-78231009D01*
X53261904Y-78231009D02*
X53309523Y-78326247D01*
X53309523Y-78326247D02*
X53309523Y-78564342D01*
X53309523Y-78564342D02*
X53261904Y-78659580D01*
X53261904Y-78659580D02*
X53214285Y-78707200D01*
X53214285Y-78707200D02*
X53119047Y-78754819D01*
X53119047Y-78754819D02*
X52833333Y-78754819D01*
X52833333Y-78754819D02*
X52738095Y-78707200D01*
X52738095Y-78707200D02*
X52690476Y-78659580D01*
X99238095Y-103754819D02*
X99238095Y-102754819D01*
X99238095Y-103231009D02*
X99809523Y-103231009D01*
X99809523Y-103754819D02*
X99809523Y-102754819D01*
X100238095Y-102850057D02*
X100285714Y-102802438D01*
X100285714Y-102802438D02*
X100380952Y-102754819D01*
X100380952Y-102754819D02*
X100619047Y-102754819D01*
X100619047Y-102754819D02*
X100714285Y-102802438D01*
X100714285Y-102802438D02*
X100761904Y-102850057D01*
X100761904Y-102850057D02*
X100809523Y-102945295D01*
X100809523Y-102945295D02*
X100809523Y-103040533D01*
X100809523Y-103040533D02*
X100761904Y-103183390D01*
X100761904Y-103183390D02*
X100190476Y-103754819D01*
X100190476Y-103754819D02*
X100809523Y-103754819D01*
X65916666Y-83904819D02*
X65916666Y-84619104D01*
X65916666Y-84619104D02*
X65869047Y-84761961D01*
X65869047Y-84761961D02*
X65773809Y-84857200D01*
X65773809Y-84857200D02*
X65630952Y-84904819D01*
X65630952Y-84904819D02*
X65535714Y-84904819D01*
X66345238Y-84000057D02*
X66392857Y-83952438D01*
X66392857Y-83952438D02*
X66488095Y-83904819D01*
X66488095Y-83904819D02*
X66726190Y-83904819D01*
X66726190Y-83904819D02*
X66821428Y-83952438D01*
X66821428Y-83952438D02*
X66869047Y-84000057D01*
X66869047Y-84000057D02*
X66916666Y-84095295D01*
X66916666Y-84095295D02*
X66916666Y-84190533D01*
X66916666Y-84190533D02*
X66869047Y-84333390D01*
X66869047Y-84333390D02*
X66297619Y-84904819D01*
X66297619Y-84904819D02*
X66916666Y-84904819D01*
X54238095Y-103754819D02*
X54238095Y-102754819D01*
X54238095Y-103231009D02*
X54809523Y-103231009D01*
X54809523Y-103754819D02*
X54809523Y-102754819D01*
X55809523Y-103754819D02*
X55238095Y-103754819D01*
X55523809Y-103754819D02*
X55523809Y-102754819D01*
X55523809Y-102754819D02*
X55428571Y-102897676D01*
X55428571Y-102897676D02*
X55333333Y-102992914D01*
X55333333Y-102992914D02*
X55238095Y-103040533D01*
X85916666Y-83904819D02*
X85916666Y-84619104D01*
X85916666Y-84619104D02*
X85869047Y-84761961D01*
X85869047Y-84761961D02*
X85773809Y-84857200D01*
X85773809Y-84857200D02*
X85630952Y-84904819D01*
X85630952Y-84904819D02*
X85535714Y-84904819D01*
X86916666Y-84904819D02*
X86345238Y-84904819D01*
X86630952Y-84904819D02*
X86630952Y-83904819D01*
X86630952Y-83904819D02*
X86535714Y-84047676D01*
X86535714Y-84047676D02*
X86440476Y-84142914D01*
X86440476Y-84142914D02*
X86345238Y-84190533D01*
X94119047Y-85231009D02*
X94261904Y-85278628D01*
X94261904Y-85278628D02*
X94309523Y-85326247D01*
X94309523Y-85326247D02*
X94357142Y-85421485D01*
X94357142Y-85421485D02*
X94357142Y-85564342D01*
X94357142Y-85564342D02*
X94309523Y-85659580D01*
X94309523Y-85659580D02*
X94261904Y-85707200D01*
X94261904Y-85707200D02*
X94166666Y-85754819D01*
X94166666Y-85754819D02*
X93785714Y-85754819D01*
X93785714Y-85754819D02*
X93785714Y-84754819D01*
X93785714Y-84754819D02*
X94119047Y-84754819D01*
X94119047Y-84754819D02*
X94214285Y-84802438D01*
X94214285Y-84802438D02*
X94261904Y-84850057D01*
X94261904Y-84850057D02*
X94309523Y-84945295D01*
X94309523Y-84945295D02*
X94309523Y-85040533D01*
X94309523Y-85040533D02*
X94261904Y-85135771D01*
X94261904Y-85135771D02*
X94214285Y-85183390D01*
X94214285Y-85183390D02*
X94119047Y-85231009D01*
X94119047Y-85231009D02*
X93785714Y-85231009D01*
X94690476Y-84754819D02*
X95357142Y-84754819D01*
X95357142Y-84754819D02*
X94690476Y-85754819D01*
X94690476Y-85754819D02*
X95357142Y-85754819D01*
X96261904Y-85754819D02*
X95690476Y-85754819D01*
X95976190Y-85754819D02*
X95976190Y-84754819D01*
X95976190Y-84754819D02*
X95880952Y-84897676D01*
X95880952Y-84897676D02*
X95785714Y-84992914D01*
X95785714Y-84992914D02*
X95690476Y-85040533D01*
X90809048Y-90033866D02*
X91570953Y-90033866D01*
X91190000Y-90414819D02*
X91190000Y-89652914D01*
X63713095Y-82984819D02*
X63713095Y-83794342D01*
X63713095Y-83794342D02*
X63760714Y-83889580D01*
X63760714Y-83889580D02*
X63808333Y-83937200D01*
X63808333Y-83937200D02*
X63903571Y-83984819D01*
X63903571Y-83984819D02*
X64094047Y-83984819D01*
X64094047Y-83984819D02*
X64189285Y-83937200D01*
X64189285Y-83937200D02*
X64236904Y-83889580D01*
X64236904Y-83889580D02*
X64284523Y-83794342D01*
X64284523Y-83794342D02*
X64284523Y-82984819D01*
X64713095Y-83080057D02*
X64760714Y-83032438D01*
X64760714Y-83032438D02*
X64855952Y-82984819D01*
X64855952Y-82984819D02*
X65094047Y-82984819D01*
X65094047Y-82984819D02*
X65189285Y-83032438D01*
X65189285Y-83032438D02*
X65236904Y-83080057D01*
X65236904Y-83080057D02*
X65284523Y-83175295D01*
X65284523Y-83175295D02*
X65284523Y-83270533D01*
X65284523Y-83270533D02*
X65236904Y-83413390D01*
X65236904Y-83413390D02*
X64665476Y-83984819D01*
X64665476Y-83984819D02*
X65284523Y-83984819D01*
X99238095Y-78754819D02*
X99238095Y-77754819D01*
X99238095Y-78231009D02*
X99809523Y-78231009D01*
X99809523Y-78754819D02*
X99809523Y-77754819D01*
X100714285Y-78088152D02*
X100714285Y-78754819D01*
X100476190Y-77707200D02*
X100238095Y-78421485D01*
X100238095Y-78421485D02*
X100857142Y-78421485D01*
D11*
X75060000Y-83360000D02*
X73640000Y-83360000D01*
X75060000Y-71640000D02*
X75060000Y-83360000D01*
X73640000Y-83360000D02*
X73640000Y-78860000D01*
X73640000Y-78860000D02*
X66250000Y-78860000D01*
X72800000Y-83050000D02*
X72200000Y-83050000D01*
X72750000Y-77750000D02*
X72750000Y-72250000D01*
X72750000Y-72250000D02*
X72250000Y-72250000D01*
X72500000Y-82450000D02*
X72800000Y-83050000D01*
X72250000Y-77750000D02*
X72750000Y-77750000D01*
X72250000Y-72250000D02*
X72250000Y-77750000D01*
X72200000Y-83050000D02*
X72500000Y-82450000D01*
X70250000Y-77750000D02*
X70250000Y-72250000D01*
X70250000Y-72250000D02*
X69750000Y-72250000D01*
X69750000Y-77750000D02*
X70250000Y-77750000D01*
X69750000Y-72250000D02*
X69750000Y-77750000D01*
X67750000Y-77750000D02*
X67750000Y-72250000D01*
X67750000Y-72250000D02*
X67250000Y-72250000D01*
X67250000Y-77750000D02*
X67750000Y-77750000D01*
X67250000Y-72250000D02*
X67250000Y-77750000D01*
X66250000Y-71640000D02*
X75060000Y-71640000D01*
X66250000Y-71640000D02*
X57440000Y-71640000D01*
X65250000Y-77750000D02*
X65250000Y-72250000D01*
X65250000Y-72250000D02*
X64750000Y-72250000D01*
X64750000Y-77750000D02*
X65250000Y-77750000D01*
X64750000Y-72250000D02*
X64750000Y-77750000D01*
X62750000Y-77750000D02*
X62750000Y-72250000D01*
X62750000Y-72250000D02*
X62250000Y-72250000D01*
X62250000Y-77750000D02*
X62750000Y-77750000D01*
X62250000Y-72250000D02*
X62250000Y-77750000D01*
X60250000Y-77750000D02*
X60250000Y-72250000D01*
X60250000Y-72250000D02*
X59750000Y-72250000D01*
X59750000Y-77750000D02*
X60250000Y-77750000D01*
X59750000Y-72250000D02*
X59750000Y-77750000D01*
X58860000Y-83360000D02*
X58860000Y-78860000D01*
X58860000Y-78860000D02*
X66250000Y-78860000D01*
X57440000Y-83360000D02*
X58860000Y-83360000D01*
X57440000Y-71640000D02*
X57440000Y-83360000D01*
X95060000Y-83360000D02*
X93640000Y-83360000D01*
X95060000Y-71640000D02*
X95060000Y-83360000D01*
X93640000Y-83360000D02*
X93640000Y-78860000D01*
X93640000Y-78860000D02*
X86250000Y-78860000D01*
X92800000Y-83050000D02*
X92200000Y-83050000D01*
X92750000Y-77750000D02*
X92750000Y-72250000D01*
X92750000Y-72250000D02*
X92250000Y-72250000D01*
X92500000Y-82450000D02*
X92800000Y-83050000D01*
X92250000Y-77750000D02*
X92750000Y-77750000D01*
X92250000Y-72250000D02*
X92250000Y-77750000D01*
X92200000Y-83050000D02*
X92500000Y-82450000D01*
X90250000Y-77750000D02*
X90250000Y-72250000D01*
X90250000Y-72250000D02*
X89750000Y-72250000D01*
X89750000Y-77750000D02*
X90250000Y-77750000D01*
X89750000Y-72250000D02*
X89750000Y-77750000D01*
X87750000Y-77750000D02*
X87750000Y-72250000D01*
X87750000Y-72250000D02*
X87250000Y-72250000D01*
X87250000Y-77750000D02*
X87750000Y-77750000D01*
X87250000Y-72250000D02*
X87250000Y-77750000D01*
X86250000Y-71640000D02*
X95060000Y-71640000D01*
X86250000Y-71640000D02*
X77440000Y-71640000D01*
X85250000Y-77750000D02*
X85250000Y-72250000D01*
X85250000Y-72250000D02*
X84750000Y-72250000D01*
X84750000Y-77750000D02*
X85250000Y-77750000D01*
X84750000Y-72250000D02*
X84750000Y-77750000D01*
X82750000Y-77750000D02*
X82750000Y-72250000D01*
X82750000Y-72250000D02*
X82250000Y-72250000D01*
X82250000Y-77750000D02*
X82750000Y-77750000D01*
X82250000Y-72250000D02*
X82250000Y-77750000D01*
X80250000Y-77750000D02*
X80250000Y-72250000D01*
X80250000Y-72250000D02*
X79750000Y-72250000D01*
X79750000Y-77750000D02*
X80250000Y-77750000D01*
X79750000Y-72250000D02*
X79750000Y-77750000D01*
X78860000Y-83360000D02*
X78860000Y-78860000D01*
X78860000Y-78860000D02*
X86250000Y-78860000D01*
X77440000Y-83360000D02*
X78860000Y-83360000D01*
X77440000Y-71640000D02*
X77440000Y-83360000D01*
X101100000Y-92500000D02*
G75*
G03*
X101100000Y-92500000I-6100000J0D01*
G01*
D12*
X61000000Y-84500000D02*
X87000000Y-84500000D01*
X61000000Y-110500000D02*
X61000000Y-84500000D01*
X67000000Y-108500000D02*
X67000000Y-110500000D01*
X67000000Y-110500000D02*
X61000000Y-110500000D01*
X81000000Y-108500000D02*
X67000000Y-108500000D01*
X81000000Y-110500000D02*
X81000000Y-108500000D01*
X87000000Y-84500000D02*
X87000000Y-110500000D01*
X87000000Y-110500000D02*
X81000000Y-110500000D01*
D13*
X70100000Y-84000000D02*
G75*
G03*
X70100000Y-84000000I-100000J0D01*
G01*
%LPC*%
D14*
X52500000Y-82500000D03*
X100000000Y-107500000D03*
D15*
X72500000Y-80950000D03*
D16*
X70000000Y-80950000D03*
X67500000Y-80950000D03*
X65000000Y-80950000D03*
X62500000Y-80950000D03*
X60000000Y-80950000D03*
D14*
X55000000Y-107500000D03*
D15*
X92500000Y-80950000D03*
D16*
X90000000Y-80950000D03*
X87500000Y-80950000D03*
X85000000Y-80950000D03*
X82500000Y-80950000D03*
X80000000Y-80950000D03*
D17*
X91200000Y-92500000D03*
D18*
X98800000Y-92500000D03*
D19*
X70190000Y-86000000D03*
D20*
X72730000Y-86000000D03*
X75270000Y-86000000D03*
X77810000Y-86000000D03*
D21*
X63000000Y-86500000D03*
X85000000Y-86500000D03*
X85000000Y-108500000D03*
X63000000Y-108500000D03*
D14*
X100000000Y-82500000D03*
D22*
X50930000Y-101500000D03*
X102930000Y-101500000D03*
X50930000Y-76500000D03*
X102930000Y-76500000D03*
D23*
X99790000Y-76000000D03*
D24*
X97250000Y-76000000D03*
X94710000Y-76000000D03*
X92170000Y-76000000D03*
X89630000Y-76000000D03*
X87090000Y-76000000D03*
X84550000Y-76000000D03*
X82010000Y-76000000D03*
X79470000Y-76000000D03*
X76930000Y-76000000D03*
X74390000Y-76000000D03*
X71850000Y-76000000D03*
X69310000Y-76000000D03*
X66770000Y-76000000D03*
X64230000Y-76000000D03*
X61690000Y-76000000D03*
X59150000Y-76000000D03*
X56610000Y-76000000D03*
X54070000Y-76000000D03*
D23*
X54070000Y-102000000D03*
D24*
X56610000Y-102000000D03*
X59150000Y-102000000D03*
X61690000Y-102000000D03*
X64230000Y-102000000D03*
X66770000Y-102000000D03*
X69310000Y-102000000D03*
X71850000Y-102000000D03*
X74390000Y-102000000D03*
X76930000Y-102000000D03*
X79470000Y-102000000D03*
X82010000Y-102000000D03*
X84550000Y-102000000D03*
X87090000Y-102000000D03*
X89630000Y-102000000D03*
X92170000Y-102000000D03*
X94710000Y-102000000D03*
X97250000Y-102000000D03*
X99790000Y-102000000D03*
%LPD*%
M02*
